<svg height="480pt" viewBox="-88 0 480 480" width="480pt" xmlns="http://www.w3.org/2000/svg"><path d="m232 0h-160c-39.746094.0429688-71.9570312 32.253906-72 72v336c.0429688 39.746094 32.253906 71.957031 72 72h160c39.746094-.042969 71.957031-32.253906 72-72v-336c-.042969-39.746094-32.253906-71.9570312-72-72zm-216 80h272v304h-272zm56-64h160c27.804688.054688 51.367188 20.484375 55.359375 48h-270.71875c3.992187-27.515625 27.554687-47.945312 55.359375-48zm160 448h-160c-30.914062-.035156-55.964844-25.085938-56-56v-8h272v8c-.035156 30.914062-25.085938 55.964844-56 56zm0 0"/><path d="m112 48h32c4.417969 0 8-3.582031 8-8s-3.582031-8-8-8h-32c-4.417969 0-8 3.582031-8 8s3.582031 8 8 8zm0 0"/><path d="m168 48h16c4.417969 0 8-3.582031 8-8s-3.582031-8-8-8h-16c-4.417969 0-8 3.582031-8 8s3.582031 8 8 8zm0 0"/><path d="m152 408c-13.253906 0-24 10.746094-24 24s10.746094 24 24 24 24-10.746094 24-24-10.746094-24-24-24zm0 32c-4.417969 0-8-3.582031-8-8s3.582031-8 8-8 8 3.582031 8 8-3.582031 8-8 8zm0 0"/><path d="m68.441406 142.65625 19.285156-12.855469 24.273438 18.199219v12c0 4.417969 3.582031 8 8 8h24c4.417969 0 8-3.582031 8-8s-3.582031-8-8-8h-16v-8c0-2.519531-1.1875-4.890625-3.199219-6.398438l-32-24c-2.714843-2.039062-6.417969-2.140624-9.242187-.257812l-24 16c-3.675782 2.453125-4.667969 7.421875-2.214844 11.097656 2.453125 3.675782 7.421875 4.667969 11.097656 2.214844zm0 0"/><path d="m40 208c2.121094 0 4.15625-.84375 5.65625-2.34375l41.105469-41.105469 6.941406 10.402344-11.359375 11.359375c-3.03125 3.136719-2.988281 8.128906.097656 11.214844 3.085938 3.085937 8.074219 3.128906 11.214844.097656l16-16c2.695312-2.699219 3.117188-6.921875 1-10.097656l-16-24c-1.328125-1.992188-3.480469-3.28125-5.863281-3.519532-2.382813-.214843-4.742188.625-6.449219 2.304688l-48 48c-2.308594 2.285156-3.007812 5.738281-1.769531 8.742188 1.242187 3.003906 4.175781 4.957031 7.425781 4.945312zm0 0"/><path d="m144 112c0 8.835938-7.164062 16-16 16s-16-7.164062-16-16 7.164062-16 16-16 16 7.164062 16 16zm0 0"/><path d="m184 136h8c4.417969 0 8-3.582031 8-8s-3.582031-8-8-8h-8c-4.417969 0-8 3.582031-8 8s3.582031 8 8 8zm0 0"/><path d="m264 120h-48c-4.417969 0-8 3.582031-8 8s3.582031 8 8 8h48c4.417969 0 8-3.582031 8-8s-3.582031-8-8-8zm0 0"/><path d="m184 160h8c4.417969 0 8-3.582031 8-8s-3.582031-8-8-8h-8c-4.417969 0-8 3.582031-8 8s3.582031 8 8 8zm0 0"/><path d="m264 144h-48c-4.417969 0-8 3.582031-8 8s3.582031 8 8 8h48c4.417969 0 8-3.582031 8-8s-3.582031-8-8-8zm0 0"/><path d="m264 168h-80c-4.417969 0-8 3.582031-8 8s3.582031 8 8 8h80c4.417969 0 8-3.582031 8-8s-3.582031-8-8-8zm0 0"/><path d="m264 232h-224c-4.417969 0-8 3.582031-8 8v120c0 4.417969 3.582031 8 8 8h224c4.417969 0 8-3.582031 8-8v-120c0-4.417969-3.582031-8-8-8zm-184 120v-16h16v16zm64 0v-48h16v48zm64 0v-80h16v80zm48 0h-16v-88c0-4.417969-3.582031-8-8-8h-32c-4.417969 0-8 3.582031-8 8v88h-16v-56c0-4.417969-3.582031-8-8-8h-32c-4.417969 0-8 3.582031-8 8v56h-16v-24c0-4.417969-3.582031-8-8-8h-32c-4.417969 0-8 3.582031-8 8v24h-16v-104h208zm0 0"/></svg>