<svg height="480pt" viewBox="0 0 480.00294 480" width="480pt" xmlns="http://www.w3.org/2000/svg"><path d="m464.28125 148.601562c6.164062-7.109374 8.835938-16.597656 7.289062-25.882812-1.546874-9.28125-7.152343-17.390625-15.289062-22.117188 6.929688-8 9.398438-18.9375 6.578125-29.140624-2.820313-10.203126-10.554687-18.320313-20.613281-21.628907 3.269531-4.523437 5.222656-9.863281 5.648437-15.429687.667969-8.878906-2.390625-17.628906-8.441406-24.15625-6.054687-6.527344-14.550781-10.24218775-23.453125-10.246094h-62.398438c-39.101562-.0390625-77.816406 7.703125-113.890624 22.785156l-25.015626 10.464844c-10.742187 4.46875-22.261718 6.765625-33.894531 6.75h-172.800781c-4.417969 0-8 3.582031-8 8s3.582031 8 8 8h72v16c-13.253906 0-24 10.746094-24 24v64c0 13.257812 10.746094 24 24 24h.070312v16h-72.070312c-4.417969 0-8 3.582031-8 8s3.582031 8 8 8h96.464844l4.878906 18.210938-7.726562 2.070312c-21.300782 5.707031-33.945313 27.601562-28.242188 48.90625l12 44.796875c9.460938 35.273437 26.300781 68.136719 49.410156 96.417969l16.589844 21.464844c6.160156 8.003906 10.894531 17.011718 14 26.621093 1.351562 4.167969 5.828125 6.449219 9.992188 5.097657 4.167968-1.351563 6.449218-5.824219 5.097656-9.992188-3.667969-11.339844-9.257813-21.964844-16.527344-31.40625l-16.601562-21.472656c-21.871094-26.566406-37.773438-57.527344-46.632813-90.777344l-12-44.800781c-3.433594-12.835938 4.179687-26.03125 17.015625-29.480469l7.738281-2.070312 18.648438 69.601562c.554687 1.996094 1.875 3.691406 3.679687 4.71875l.214844.09375c.804688.445312 1.679688.746094 2.585938.890625l.269531.046875c.320312.074219.648437.128906.976562.160156.699219 0 1.398438-.09375 2.070313-.28125 4.269531-1.144531 6.800781-5.53125 5.65625-9.796875l-43.488282-162.289062c-2.285156-8.535157 2.78125-17.308594 11.316407-19.597657 8.539062-2.285156 17.3125 2.78125 19.597656 11.316407l37.261719 139.089843c.265625.953126.710937 1.851563 1.3125 2.636719.207031.25.429687.488281.664062.707031.414063.460938.886719.867188 1.402344 1.214844.316406.203125.648438.378906.992188.527344.507812.246094 1.046874.433594 1.597656.5625.578125.125 1.160156.21875 1.746094.285156.699218 0 1.394531-.09375 2.070312-.277344 4.265625-1.144531 6.796875-5.527343 5.65625-9.792968 0 0-16.960938-63.792969-17.046875-64.710938-.644531-7.695312 4.332031-14.738281 11.800781-16.707031 1.121094-.3125 2.28125-.488281 3.445313-.527344 3.042969-.15625 6.066406.589844 8.6875 2.136719 3.683593 2.109375 6.367187 5.605469 7.457031 9.703125l16.570312 61.816406c.261719.957031.707032 1.851563 1.308594 2.640625.203125.242188.417969.472656.648438.6875.425781.46875.90625.886719 1.433594 1.242188.816406.496094 1.703124.863281 2.632812 1.085937.347656.082031.703125.140625 1.0625.175781.214844 0 .417969.105469.632812.105469.703126 0 1.402344-.09375 2.078126-.28125 4.265624-1.144531 6.796874-5.527343 5.65625-9.792969 0 0-13.023438-49.597656-12.941407-51.199218.363281-7.875 6.410157-14.3125 14.25-15.167969 7.835938-.851563 15.128907 4.132813 17.179688 11.746094l12.425781 46.359375c.664062 2.839844 2.824219 5.09375 5.636719 5.878906 2.808593.785156 5.824219-.023438 7.867187-2.105469 2.042969-2.085937 2.785156-5.117187 1.941406-7.910156l-10.214843-38.136719c-.367188-1.625-.496094-3.296875-.390625-4.960937.113281-6.621094 4.253906-12.507813 10.449218-14.855469 4.214844-1.464844 8.847657-1.109375 12.792969.980469 3.945313 2.085937 6.84375 5.71875 8.003907 10.027343l11.632812 43.410157v.109375l4.488281 16.761718c9.613281 35.714844 12.015625 72.984376 7.070313 109.640626l-3.636719 26.917968c-.714844 6.003906-.859375 12.066406-.433594 18.097656.453125 6.816407 1.917969 13.53125 4.34375 19.917969l12 32.304688c1.15625 3.105469 4.121094 5.167969 7.433594 5.167969.945313-.007813 1.878906-.175782 2.765625-.503907 4.105469-1.53125 6.191406-6.09375 4.664062-10.199219l-12-32.304687c-1.875-4.917969-3.011718-10.089844-3.375-15.34375-.359374-5.007813-.253906-10.042969.320313-15.03125l3.640625-26.90625c5.222656-38.734375 2.683594-78.121094-7.472656-115.863281l-2.054688-7.808594h53.558594c22.082031-.023438 39.972656-17.917969 40-40v-8h24c14.410156.046875 27.058594-9.574219 30.867188-23.46875 3.808593-13.898438-2.167969-28.621094-14.585938-35.929688zm-368.28125-92.601562h48v16h-48zm-.070312 144v-15.839844l4.246093 15.839844zm39.589843-79.117188c-11.207031-6.46875-25.210937-5.550781-35.476562 2.328126-10.269531 7.882812-14.777344 21.167968-11.425781 33.671874l2.984374 11.117188h-11.601562c-4.417969 0-8-3.582031-8-8v-64c0-4.417969 3.582031-8 8-8h80c4.417969 0 8 3.582031 8 8v64c0 4.417969-3.582031 8-8 8h-2.144531l-7.457031-27.695312c-2.171876-8.199219-7.527344-15.191407-14.878907-19.421876zm312.480469 71.117188h-88c-4.417969 0-8 3.582031-8 8s3.582031 8 8 8h48v8c0 13.257812-10.746094 24-24 24h-57.847656l-9.777344-36.496094c-2.292969-8.570312-8.050781-15.796875-15.890625-19.953125-7.839844-4.152343-17.054687-4.859375-25.4375-1.949219-6.375 2.242188-11.832031 6.519532-15.535156 12.175782-1.910157-1.945313-4.0625-3.636719-6.398438-5.039063-13.261719-7.6875-30.117187-4.855469-40.136719 6.742188-6.136718-9.21875-16.65625-14.546875-27.71875-14.039063-2.34375.074219-4.671874.429688-6.929687 1.054688-5.421875 1.460937-10.363281 4.328125-14.328125 8.304687l-1.871094-7.007812c12.335938-1.097657 21.8125-11.40625 21.871094-23.792969v-64c0-13.253906-10.746094-24-24-24v-16h20.800781c13.746094.011719 27.359375-2.707031 40.046875-8l25.03125-10.46875c34.121094-14.257812 70.742188-21.574219 107.722656-21.53125h62.398438c4.453125.003906 8.699219 1.863281 11.726562 5.128906 3.023438 3.261719 4.554688 7.640625 4.21875 12.082032-1.121093 8.636718-8.597656 15.027343-17.304687 14.789062h-22.640625c-4.417969 0-8 3.582031-8 8s3.582031 8 8 8h40c8.835938 0 16 7.164062 16 16 0 8.839844-7.164062 16-16 16h-40c-4.417969 0-8 3.582031-8 8s3.582031 8 8 8h48c8.835938 0 16 7.164062 16 16 0 8.839844-7.164062 16-16 16h-48c-4.417969 0-8 3.582031-8 8s3.582031 8 8 8h56c8.835938 0 16 7.164062 16 16 0 8.839844-7.164062 16-16 16zm0 0"/></svg>