<svg height="480pt" viewBox="-64 0 480 480.00008" width="480pt" xmlns="http://www.w3.org/2000/svg"><path d="m128.03125 88c-.03125-23.714844-14.96875-44.851562-37.3125-52.800781-4.144531-1.414063-8.660156.769531-10.121094 4.898437-1.464844 4.132813.664063 8.671875 4.777344 10.183594 15.960938 5.679688 26.628906 20.777344 26.65625 37.71875 0 4.417969 3.582031 8 8 8s8-3.582031 8-8zm0 0"/><path d="m112.03125 456c-4.417969 0-8 3.582031-8 8v8c0 4.417969 3.582031 8 8 8s8-3.582031 8-8v-8c0-4.417969-3.582031-8-8-8zm0 0"/><path d="m251.03125 112.113281c-3.773438 2.292969-4.972656 7.214844-2.679688 10.992188 2.296876 3.773437 7.21875 4.972656 10.992188 2.679687 12.046875-7.214844 26.976562-7.632812 39.410156-1.105468 3.890625 2.09375 8.742188.632812 10.835938-3.257813 2.089844-3.894531.628906-8.746094-3.261719-10.835937-17.4375-9.175782-38.394531-8.597657-55.296875 1.527343zm0 0"/><path d="m72.03125 0c-25.015625.664062-49.160156 9.324219-68.894531 24.710938-.128907.097656-.175781.25-.289063.351562-.585937.527344-1.089844 1.144531-1.488281 1.824219-.203125.257812-.390625.523437-.558594.800781-.503906 1.039062-.7773435 2.175781-.800781 3.328125v113.945313c.0234375 1.152343.296875 2.289062.800781 3.328124.605469.941407 1.289063 1.824219 2.046875 2.648438.113282.101562.160156.253906.289063.351562 19.734375 15.386719 43.878906 24.046876 68.894531 24.710938 2.703125 0 5.359375-.167969 8-.40625v176.40625c0 4.417969 3.582031 8 8 8v8c.042969 10.132812 6.445312 19.148438 16 22.527344v49.472656c0 4.417969 3.582031 8 8 8s8-3.582031 8-8v-49.472656c9.554688-3.378906 15.957031-12.394532 16-22.527344v-8c4.417969 0 8-3.582031 8-8v-213.558594c18.886719-26.851562 21.234375-61.988281 6.089844-91.109375-15.148438-29.125-45.261719-47.378906-78.089844-47.332031zm-56 140.945312v-105.890624c16.320312-11.851563 35.839844-18.496094 56-19.054688 39.765625 0 72 32.234375 72 72s-32.234375 72-72 72c-20.160156-.558594-39.679688-7.203125-56-19.054688zm112 14.886719v188.167969h-32v-171.40625c11.710938-3.316406 22.609375-9.023438 32-16.761719zm-8 212.167969c0 4.417969-3.582031 8-8 8s-8-3.582031-8-8v-8h16zm0 0"/><path d="m348.929688 96.710938c-19.738282-15.386719-43.882813-24.046876-68.898438-24.710938-32.824219-.046875-62.941406 18.207031-78.085938 47.332031-15.148437 29.121094-12.800781 64.257813 6.085938 91.109375v213.558594c0 4.417969 3.582031 8 8 8v8c.042969 10.132812 6.445312 19.148438 16 22.527344v9.472656c0 4.417969 3.582031 8 8 8s8-3.582031 8-8v-9.472656c9.554688-3.378906 15.957031-12.394532 16-22.527344v-8c4.417969 0 8-3.582031 8-8v-176.40625c2.640625.238281 5.296875.40625 8 .40625 25.015625-.664062 49.160156-9.324219 68.898438-24.710938 1.957031-1.515624 3.101562-3.851562 3.101562-6.328124v-113.921876c0-2.476562-1.144531-4.8125-3.101562-6.328124zm-100.898438 343.289062c0 4.417969-3.582031 8-8 8s-8-3.582031-8-8v-8h16zm8-24h-32v-188.167969c9.394531 7.738281 20.289062 13.445313 32 16.761719zm80-203.054688c-16.316406 11.851563-35.839844 18.496094-56 19.054688-39.765625 0-72-32.234375-72-72s32.234375-72 72-72c20.160156.558594 39.683594 7.203125 56 19.054688zm0 0"/></svg>