<svg height="480pt" viewBox="-12 0 480 480.00106" width="480pt" xmlns="http://www.w3.org/2000/svg"><path d="m367.996094 352h-56c-8.839844 0-16-7.164062-16-16v-16.359375c22.597656-13.917969 42.445312-38.808594 57.550781-67.273437 15.488281-3.804688 29-13.25 37.894531-26.484376 4.445313-7.242187 5.824219-15.953124 3.828125-24.207031-1.992187-8.257812-7.191406-15.382812-14.453125-19.792969-.398437-.234374-.796875-.378906-1.183594-.59375.417969-1.976562.867188-3.953124 1.226563-5.894531l.175781.070313c.941406.367187 1.945313.546875 2.960938.535156 4.417968 0 8-3.582031 8-8v-52.878906c-.007813-18.574219-10.757813-35.472656-27.578125-43.351563-38.695313-67.085937-123.65625-91.339843-191.9375-54.792969-15.679688-18.597656-42.835938-22.4375-63.0625-8.917968h-11.824219c-41.921875.082031-77.996094 29.648437-86.320312 70.734375l-11.121094 55.609375c-.742188 3.742187 1.261718 7.488281 4.785156 8.949218 3.523438 1.460938 7.589844.230469 9.710938-2.941406l24.25-36.378906c12.5625-18.769531 33.222656-30.535156 55.777343-31.773438 1.898438 3.234376 4.167969 6.238282 6.757813 8.953126-8.601563 8.875-13.421875 20.746093-13.4375 33.109374v53.679688c-.003906 2.6875 1.34375 5.195312 3.582031 6.675781 2.238281 1.484375 5.074219 1.742188 7.542969.691407.359375 1.945312.800781 3.929687 1.226562 5.898437-.417968.230469-.800781.382813-1.25.632813-7.242187 4.414062-12.429687 11.53125-14.417968 19.777343-1.988282 8.246094-.609376 16.945313 3.828124 24.171875 8.894532 13.242188 22.398438 22.699219 37.886719 26.519532 15.085938 28.417968 34.953125 53.28125 57.601563 67.203124v24.429688c0 4.417969-3.582032 8-8 8h-56c-48.578125.058594-87.945313 39.421875-88 88v32c0 4.417969 3.578125 8 8 8h408c4.417968 0 8-3.582031 8-8v-32c-.058594-48.578125-39.425782-87.941406-88-88zm-279.128906-295.382812c-25.753907 2.890624-48.914063 17.011718-63.273438 38.582031l-1.816406 2.738281 3.199218-16c6.578126-32.429688 34.363282-56.230469 67.417969-57.746094-5.730469 9.773438-7.691406 21.308594-5.503906 32.425782zm290.878906 148.800781c1 4.113281.300781 8.457031-1.9375 12.054687-3.765625 5.40625-8.554688 10.027344-14.09375 13.601563 4.617187-10.796875 8.5625-21.867188 11.808594-33.152344 2.074218 2.074219 3.535156 4.683594 4.222656 7.535156zm-81.6875-29.417969c-34.910156-.023438-68.945313-10.929688-97.367188-31.199219 49.386719-6.121093 99.523438-.277343 146.183594 17.03125l18.824219 7.488281c-.367188 2.191407-.847657 4.441407-1.304688 6.679688zm-58.0625-160c38.808594.011719 75.511718 17.636719 99.789062 47.914062-65.484375-13.914062-133.121094-14.277343-198.75-1.074218 24.332032-29.609375 60.632813-46.792969 98.960938-46.839844zm-104 0c8.492187-.035156 16.640625 3.347656 22.605468 9.394531-17.285156 11.832031-31.777343 27.296875-42.472656 45.308594-.589844.265625-1.117187.632813-1.703125.929687-9.753906-8.902343-13.035156-22.886718-8.257812-35.199218 4.773437-12.3125 16.621093-20.429688 29.828125-20.433594zm-32 98.320312c-.011719-12.746093 7.558594-24.277343 19.253906-29.34375l9.160156-3.902343c70.804688-16.152344 144.371094-15.816407 215.023438.976562l8.945312 3.496094c11.890625 5.011719 19.621094 16.667969 19.617188 29.574219v41.078125l-23.320313-9.285157c-72.859375-26.886718-152.875-27.171874-225.921875-.800781l-22.757812 9.792969zm-1.832032 103.199219c-3.863281-6.246093-2.917968-14.328125 2.285157-19.511719 3.21875 11.246094 7.140625 22.277344 11.738281 33.035157-5.511719-3.566407-10.277344-8.171875-14.023438-13.5625zm36.484376 23.738281-.070313-.128906c-11.644531-22.722656-19.847656-47.050781-24.335937-72.183594l18.398437-7.945312c15.136719-5.449219 30.679687-9.699219 46.480469-12.703125 33.214844 28.199219 75.367187 43.6875 118.9375 43.703125h62.457031c-12.984375 46.402344-41.761719 97.304688-76.335937 116.167969-27.359376 15.726562-61.019532 15.699219-88.355469-.070313-22.4375-12.214844-42.375-37.808594-57.175781-66.878906zm61.347656 102.742188v-16.183594c25.554687 10.863282 54.429687 10.882813 80 .046875v8.136719c.058594 14.402344 9.734375 26.992188 23.636718 30.753906-3.53125 32.222656-30.601562 56.71875-63.015624 57.023438-32.417969.304687-59.941407-23.679688-64.078126-55.832032 13.019532-.296874 23.429688-10.921874 23.457032-23.945312zm-152 96c.042968-36.648438 27.578125-67.433594 64-71.550781v95.550781h-64zm80-72h32.421875c4.214843 40.78125 38.578125 71.777344 79.578125 71.777344 40.996094 0 75.359375-30.996094 79.574218-71.777344h40.425782v96h-232zm312 96h-64v-95.550781c36.417968 4.117187 63.953125 34.902343 64 71.550781zm0 0"/></svg>