<svg height="480pt" viewBox="0 0 480 480.00601" width="480pt" xmlns="http://www.w3.org/2000/svg"><path d="m448.003906.0078125c-12.578125 0-23.984375 7.3671875-29.160156 18.8320315-5.175781 11.460937-3.15625 24.890625 5.160156 34.324218v2.84375h-368v-2.84375c9.414063-10.675781 10.644532-26.289062 3.019532-38.308593-7.628907-12.019531-22.28125-17.558594-35.949219-13.585938-13.671875 3.972657-23.074219 16.5-23.07031275 30.738281-.02343745 7.792969 2.82421875 15.328126 7.99999975 21.15625v418.84375c0 4.417969 3.582032 8 8 8h32c4.417969 0 8-3.582031 8-8v-304h368v304c0 4.417969 3.582032 8 8 8h32c4.417969 0 8-3.582031 8-8v-418.84375c8.316406-9.433593 10.335938-22.863281 5.160156-34.324218-5.175781-11.464844-16.585937-18.8320315-29.160156-18.8320315zm-24 103.9999995h-32v-32h32zm-144 0h-32v-32h32zm16-32h32v32h-32zm-64 32h-32v-32h32zm-48 0h-32v-32h32zm-48 0h-32v-32h32zm0 16v32h-32v-32zm16 0h32v32h-32zm48 0h32v32h-32zm48 0h32v32h-32zm48 0h32v32h-32zm48 0h32v32h-32zm0-16v-32h32v32zm-256-32v32h-32v-32zm-48 392h-16v-414.160156c0-2.3125-1-4.515625-2.746094-6.035156-3.375-2.988281-5.292968-7.296875-5.253906-11.804688 0-8.839843 7.164063-16 16-16 8.835938 0 16 7.160157 16 16 .039063 4.507813-1.878906 8.816407-5.257812 11.804688-1.742188 1.519531-2.742188 3.722656-2.742188 6.035156zm16-344h32v32h-32zm336 32v-32h32v32zm66.742188-108.195312c-1.742188 1.519531-2.742188 3.722656-2.742188 6.035156v414.160156h-16v-414.160156c0-2.3125-1-4.515625-2.746094-6.035156-3.375-2.988281-5.292968-7.296875-5.253906-11.804688 0-8.839843 7.164063-16 16-16 8.835938 0 16 7.160157 16 16 .039063 4.507813-1.878906 8.816407-5.257812 11.804688zm0 0"/><path d="m408.003906 480.007812h-336c-2.730468-.015624-5.261718-1.421874-6.71875-3.726562-1.457031-2.308594-1.640625-5.195312-.480468-7.667969l120-256c1.308593-2.796875 4.109374-4.589843 7.199218-4.605469h96c3.101563 0 5.921875 1.796876 7.238282 4.605469l120 256c1.160156 2.476563.972656 5.375-.492188 7.683594-1.46875 2.308594-4.011719 3.707031-6.746094 3.710937zm-323.417968-16h310.832031l-112.503907-240h-85.824218zm0 0"/><path d="m240.003906 264.007812c-4.417968 0-8-3.582031-8-8v-16c0-4.421874 3.582032-8 8-8 4.417969 0 8 3.578126 8 8v16c0 4.417969-3.582031 8-8 8zm0 0"/><path d="m240.003906 312.007812c-4.417968 0-8-3.582031-8-8v-16c0-4.421874 3.582032-8 8-8 4.417969 0 8 3.578126 8 8v16c0 4.417969-3.582031 8-8 8zm0 0"/><path d="m240.003906 360.007812c-4.417968 0-8-3.582031-8-8v-16c0-4.421874 3.582032-8 8-8 4.417969 0 8 3.578126 8 8v16c0 4.417969-3.582031 8-8 8zm0 0"/><path d="m240.003906 408.007812c-4.417968 0-8-3.582031-8-8v-16c0-4.421874 3.582032-8 8-8 4.417969 0 8 3.578126 8 8v16c0 4.417969-3.582031 8-8 8zm0 0"/><path d="m240.003906 456.007812c-4.417968 0-8-3.582031-8-8v-16c0-4.421874 3.582032-8 8-8 4.417969 0 8 3.578126 8 8v16c0 4.417969-3.582031 8-8 8zm0 0"/></svg>