<svg height="483pt" viewBox="-2 0 483 483.2881" width="483pt" xmlns="http://www.w3.org/2000/svg"><path d="m149.554688 483.289062c-28.136719.023438-56.070313-4.730468-82.617188-14.058593l-61.457031-21.6875c-2.472657-.871094-4.359375-2.902344-5.050781-5.429688-.695313-2.53125-.101563-5.238281 1.582031-7.25l28.480469-34.0625-29.347657-52.960937c-1.605469-2.90625-1.25-6.503906.894531-9.042969 2.148438-2.535156 5.636719-3.480469 8.769532-2.371094l61.335937 21.671875c46.90625 16.441406 97.835938 17.484375 145.378907 2.980469l51.421874-15.804687c54.207032-16.59375 112.457032-14.179688 165.105469 6.839843l41.085938 16.453125c2.1875.875 3.875 2.667969 4.617187 4.902344.746094 2.234375.464844 4.683594-.757812 6.691406l-21.867188 36 22.402344 52.71875c1.265625 2.976563.613281 6.425782-1.652344 8.734375-2.265625 2.3125-5.699218 3.027344-8.699218 1.820313l-40.175782-16.234375c-49.300781-19.824219-103.902344-22.1875-154.730468-6.695313l-52.191407 16c-23.507812 7.171875-47.949219 10.804688-72.527343 10.785156zm-127.871094-47 50.582031 17.855469c46.824219 16.410157 97.65625 17.484375 145.128906 3.0625l52.191407-16c54.332031-16.566406 112.699218-14.042969 165.398437 7.152344l22.25 8.976563-16.449219-38.710938c-1.003906-2.371094-.808594-5.082031.527344-7.28125l19.097656-31.433594-32.328125-12.941406c-49.25-19.667969-103.738281-21.925781-154.449219-6.402344l-51.429687 15.808594c-50.824219 15.488281-105.265625 14.367188-155.410156-3.199219l-41.4375-14.617187 21.789062 39.320312c1.601563 2.894532 1.257813 6.472656-.863281 9.007813zm0 0"/><path d="m128.144531 360c-4.417969 0-8-3.582031-8-8v-8c0-4.417969 3.582031-8 8-8 4.421875 0 8 3.582031 8 8v8c0 4.417969-3.578125 8-8 8zm0 0"/><path d="m424.144531 64c-22.078125.027344-39.972656 17.917969-40 40v80c0 4.417969-3.578125 8-8 8h-96c-4.417969 0-8-3.582031-8-8v-10.398438c23.695313-7.09375 39.945313-28.871093 40-53.601562v-57.472656c9.554688-3.378906 15.960938-12.394532 16-22.527344v-16c0-13.253906-10.742187-24-24-24h-168c-4.417969 0-8 3.582031-8 8v8c.046875 23.398438 16.933594 43.359375 40 47.28125v56.71875c.058594 24.730469 16.308594 46.507812 40 53.601562v10.398438c0 4.417969-3.578125 8-8 8h-96c-4.417969 0-8-3.582031-8-8v-80c0-22.089844-17.90625-40-40-40-22.089843 0-40 17.910156-40 40v96c.046875 39.746094 32.253907 71.957031 72 72h32v40c0 4.417969 3.582031 8 8 8 4.421875 0 8-3.582031 8-8v-104h40.554688c4.007812 31.992188 31.207031 55.996094 63.445312 55.996094 32.242188 0 59.441407-24.003906 63.449219-55.996094h40.550781v112c0 4.417969 3.582031 8 8 8 4.421875 0 8-3.582031 8-8v-48h32c39.746094-.042969 71.957031-32.253906 72-72v-96c-.023437-22.082031-17.917969-39.972656-40-40zm-280-48h160c4.421875 0 8 3.582031 8 8v16c0 4.417969-3.578125 8-8 8h-128c-17.671875 0-32-14.328125-32-32zm40 104v-56h112v56c-.023437 22.082031-17.917969 39.972656-40 40h-32c-22.078125-.027344-39.972656-17.917969-40-40zm-96 136c-30.910156-.035156-55.964843-25.085938-56-56v-96c0-13.253906 10.746094-24 24-24 13.257813 0 24 10.746094 24 24v80c0 13.253906 10.746094 24 24 24h16v48zm152-8c-23.394531-.042969-43.359375-16.933594-47.277343-40h7.277343c13.257813 0 24-10.746094 24-24v-8h32v8c0 13.253906 10.746094 24 24 24h7.28125c-3.917969 23.066406-23.882812 39.957031-47.28125 40zm208-48c-.035156 30.914062-25.085937 55.964844-56 56h-32v-48h16c13.257813 0 24-10.746094 24-24v-80c0-13.253906 10.746094-24 24-24 13.257813 0 24 10.746094 24 24zm0 0"/><path d="m296.144531 288h-112c-4.417969 0-8 3.582031-8 8v56c0 4.417969 3.582031 8 8 8 4.421875 0 8-3.582031 8-8v-48h96v16c0 4.417969 3.582031 8 8 8 4.421875 0 8-3.582031 8-8v-24c0-4.417969-3.578125-8-8-8zm0 0"/></svg>