<svg height="483pt" viewBox="-2 0 483 483.25454" width="483pt" xmlns="http://www.w3.org/2000/svg"><path d="m479.488281 468.871094-22.398437-52.71875 21.863281-36c1.226563-2.011719 1.503906-4.457032.761719-6.691406-.742188-2.234376-2.433594-4.027344-4.617188-4.902344l-41.089844-16.453125c-52.640624-21.011719-110.878906-23.421875-165.078124-6.832031l-51.433594 15.804687c-47.539063 14.503906-98.464844 13.457031-145.367188-2.980469l-61.3125-21.601562c-3.132812-1.105469-6.621094-.160156-8.769531 2.375-2.1445312 2.535156-2.5 6.132812-.894531 9.039062l29.320312 52.890625-28.480468 34.03125c-1.683594 2.011719-2.273438 4.71875-1.582032 7.25.695313 2.527344 2.582032 4.558594 5.054688 5.429688l61.457031 21.6875c50.054687 17.546875 104.394531 18.695312 155.144531 3.273437l52.191406-16c50.828126-15.492187 105.425782-13.128906 154.726563 6.695313l40.152344 16.207031c3 1.210938 6.4375.492188 8.703125-1.816406s2.917968-5.757813 1.648437-8.734375zm-44.519531-20.496094c-52.699219-21.195312-111.066406-23.71875-165.398438-7.152344l-52.191406 16c-47.476562 14.421875-98.308594 13.347656-145.128906-3.0625l-50.585938-17.871094 24.601563-29.402343c2.121094-2.535157 2.464844-6.113281.863281-9.007813l-21.792968-39.320312 41.441406 14.625c50.144531 17.566406 104.582031 18.6875 155.40625 3.199218l51.433594-15.808593c50.707031-15.523438 105.199218-13.265625 154.449218 6.402343l32.328125 12.945313-19.097656 31.429687c-1.335937 2.199219-1.53125 4.910157-.527344 7.28125l16.449219 38.726563zm0 0"/><path d="m88.128906 288h40v24c0 4.417969 3.582032 8 8 8 4.417969 0 8-3.582031 8-8v-72h32.550782c4.011718 31.992188 31.207031 55.996094 63.449218 55.996094 32.242188 0 59.441406-24.003906 63.449219-55.996094h32.550781v72c0 4.417969 3.582032 8 8 8 4.417969 0 8-3.582031 8-8v-24h40c30.914063-.035156 55.964844-25.085938 56-56v-104c0-17.671875-14.328125-32-32-32s-32 14.328125-32 32v88c0 4.417969-3.582031 8-8 8h-96c-4.417968 0-8-3.582031-8-8h88c3.074219 0 5.871094-1.761719 7.207032-4.527344 1.332031-2.765625.964843-6.054687-.949219-8.457031l-3.097657-3.886719c-12.378906-15.59375-19.128906-34.914062-19.160156-54.824218v-56.304688c-.058594-48.578125-39.421875-87.9414062-88-88h-32c-48.578125.0585938-87.941406 39.421875-88 88v56.046875c-.039062 19.144531-6.28125 37.761719-17.792968 53.058594l-4.605469 6.09375c-1.820313 2.425781-2.113281 5.667969-.757813 8.378906 1.355469 2.710937 4.125 4.421875 7.15625 4.421875h88c0 4.417969-3.582031 8-8 8h-96c-4.417968 0-8-3.582031-8-8v-88c0-17.671875-14.328125-32-32-32s-32 14.328125-32 32v104c.035156 30.914062 25.085938 55.964844 56 56zm312-72v-88c0-8.835938 7.164063-16 16-16 8.835938 0 16 7.164062 16 16v104c-.027344 22.082031-17.917968 39.972656-40 40h-40v-32h24c13.253906 0 24-10.746094 24-24zm-216-88v-32h10.671875c31.046875-.035156 61.664063-7.265625 89.449219-21.121094l11.878906-5.933594v59.054688c0 30.929688-25.070312 56-56 56-30.925781 0-56-25.070312-56-56zm-48.34375 72c10.636719-16.726562 16.304688-36.128906 16.34375-55.953125v-56.046875c.042969-39.746094 32.253906-71.957031 72-72h32c39.746094.042969 71.957032 32.253906 72 72v56.304688c.027344 19.71875 5.632813 39.03125 16.175782 55.695312h-72.175782v-7.601562c24.472656-12.140626 39.964844-37.082032 40-64.398438v-72c0-2.773438-1.433594-5.347656-3.792968-6.808594-2.355469-1.457031-5.300782-1.589844-7.78125-.351562l-23.464844 11.726562c-25.558594 12.75-53.726563 19.402344-82.289063 19.433594h-18.671875c-4.417968 0-8 3.582031-8 8v40c.039063 27.316406 15.53125 52.257812 40 64.398438v7.601562zm88.34375 16v-17.855469c10.523438 2.472657 21.476563 2.472657 32 0v17.855469c0 13.253906 10.746094 24 24 24h7.28125c-3.882812 23.085938-23.871094 39.992188-47.28125 39.992188s-43.398437-16.90625-47.28125-39.992188h7.28125c13.253906 0 24-10.746094 24-24zm-176-88c0-8.835938 7.164063-16 16-16 8.835938 0 16 7.164062 16 16v88c0 13.253906 10.746094 24 24 24h24v32h-40c-22.078125-.027344-39.972656-17.917969-40-40zm0 0"/><path d="m136.128906 336c-4.417968 0-8 3.582031-8 8v8c0 4.417969 3.582032 8 8 8 4.417969 0 8-3.582031 8-8v-8c0-4.417969-3.582031-8-8-8zm0 0"/></svg>