<svg height="488pt" viewBox="0 -4 488.00239 488" width="488pt" xmlns="http://www.w3.org/2000/svg"><path d="m288 56.042969c0-26.507813-21.488281-48-48-48-26.507812 0-48 21.492187-48 48 0 26.511719 21.492188 48 48 48 26.5-.027344 47.976562-21.5 48-48zm-48 32c-17.671875 0-32-14.328125-32-32s14.328125-32 32-32c17.675781 0 32 14.328125 32 32s-14.324219 32-32 32zm0 0"/><path d="m473.601562 240.042969 13.039063-19.558594c1.636719-2.453125 1.792969-5.605469.402344-8.207031-1.386719-2.601563-4.09375-4.230469-7.042969-4.234375h-40v-16c0-4.417969-3.582031-8-8-8h-104v-16h16c30.914062-.035157 55.964844-25.085938 56-56v-84c.03125-7.429688-2.914062-14.566407-8.175781-19.816407-8.007813-8.027343-20.066407-10.433593-30.542969-6.09375-10.472656 4.339844-17.296875 14.570313-17.28125 25.910157v68c0 4.417969-3.582031 8-8 8h-192c-4.417969 0-8-3.582031-8-8v-68c.03125-7.429688-2.914062-14.566407-8.175781-19.816407-8.007813-8.027343-20.066407-10.433593-30.542969-6.09375-10.472656 4.339844-17.296875 14.570313-17.28125 25.910157v84c.035156 30.914062 25.085938 55.964843 56 56h16v16h-96c-4.417969 0-8 3.582031-8 8v16h-40c-2.949219 0-5.660156 1.625-7.054688 4.226562-1.390624 2.601563-1.238281 5.757813.398438 8.214844l13.058594 19.558594-13.042969 19.558593c-1.632813 2.453126-1.789063 5.609376-.402344 8.207032 1.390625 2.601562 4.097657 4.230468 7.042969 4.234375h48c4.417969 0 8-3.582031 8-8v-16h88v40c0 4.417969 3.582031 8 8 8h8v152c0 17.671875 14.328125 32 32 32 17.675781 0 32-14.328125 32-32v-152h16v104c0 17.671875 14.328125 32 32 32 17.675781 0 32-14.328125 32-32v-104h8c4.417969 0 8-3.582031 8-8v-40h96v16c0 4.417969 3.582031 8 8 8h48c2.953125 0 5.664062-1.625 7.054688-4.226563 1.394531-2.601562 1.242187-5.757812-.398438-8.214844zm-210.457031-120c-2.679687 13.761719-12 24-23.144531 24s-20.460938-10.238281-23.144531-24zm-103.144531 32h-24c-22.078125-.027344-39.972656-17.917969-40-40v-84c0-6.628907 5.375-12 12-12 6.628906 0 12 5.371093 12 12v68c0 13.253906 10.746094 24 24 24h56.601562c3.199219 22.664062 19.625 40 39.398438 40 19.777344 0 36.210938-17.335938 39.402344-40h56.597656c13.257812 0 24-10.746094 24-24v-68c0-6.628907 5.375-12 12-12 6.628906 0 12 5.371093 12 12v84c-.023438 22.082031-17.917969 39.972656-40 40h-24c-4.417969 0-8 3.582031-8 8v24h-144v-24c0-4.417969-3.582031-8-8-8zm-112 104h-25.054688l7.710938-11.558594c1.792969-2.6875 1.792969-6.191406 0-8.882813l-7.710938-11.558593h25.054688zm168 192c0 8.835937-7.164062 16-16 16s-16-7.164063-16-16v-152h32zm80-48c0 8.835937-7.164062 16-16 16s-16-7.164063-16-16v-104h32zm16-120h-144v-32h144zm-248-48v-32h360v32zm393.34375 12.441406 7.714844 11.558594h-25.058594v-32h25.058594l-7.714844 11.558593c-1.792969 2.691407-1.792969 6.195313 0 8.882813zm0 0"/></svg>