<svg height="479.856pt" viewBox="0 0 479.856 479.856" width="479.856pt" xmlns="http://www.w3.org/2000/svg"><path d="m103.929688 111.855469c4.375 0 7.925781-3.550781 7.925781-7.925781v-24.074219h16.074219c4.375 0 7.925781-3.550781 7.925781-7.925781 0-4.378907-3.550781-7.929688-7.925781-7.929688h-16.074219v-16.144531h24.074219c4.375 0 7.925781-3.550781 7.925781-7.925781 0-4.378907-3.550781-7.929688-7.925781-7.929688h-32c-4.378907 0-7.929688 3.550781-7.929688 7.929688v64c0 4.375 3.550781 7.925781 7.929688 7.925781zm0 0"/><path d="m159.929688 111.855469c4.375 0 7.925781-3.550781 7.925781-7.925781v-64c0-4.378907-3.550781-7.929688-7.925781-7.929688-4.378907 0-7.929688 3.550781-7.929688 7.929688v64c0 4.375 3.550781 7.925781 7.929688 7.925781zm0 0"/><path d="m247.929688 111.855469c4.375 0 7.925781-3.550781 7.925781-7.925781v-64c0-4.378907-3.550781-7.929688-7.925781-7.929688-4.378907 0-7.929688 3.550781-7.929688 7.929688v64c0 4.375 3.550781 7.925781 7.929688 7.925781zm0 0"/><path d="m183.929688 111.855469c4.375 0 7.925781-3.550781 7.925781-7.925781v-36.355469l25.34375 40.554687c1.453125 2.316406 3.996093 3.722656 6.730469 3.726563 2.101562.003906 4.121093-.832031 5.605468-2.320313 1.488282-1.484375 2.324219-3.503906 2.320313-5.605468v-64c0-4.378907-3.550781-7.929688-7.925781-7.929688-4.378907 0-7.929688 3.550781-7.929688 7.929688v36.351562l-25.34375-40.554688c-1.871094-3.003906-5.507812-4.402343-8.914062-3.425781-3.402344.976563-5.746094 4.085938-5.742188 7.628907v64c0 4.375 3.550781 7.925781 7.929688 7.925781zm0 0"/><path d="m327.929688 111.855469c4.375 0 7.925781-3.550781 7.925781-7.925781v-24.074219h24.144531v24.074219c0 4.375 3.550781 7.925781 7.929688 7.925781 4.375 0 7.925781-3.550781 7.925781-7.925781v-64c0-4.378907-3.550781-7.929688-7.925781-7.929688-4.378907 0-7.929688 3.550781-7.929688 7.929688v24.070312h-24.144531v-24.070312c0-4.378907-3.550781-7.929688-7.925781-7.929688-4.378907 0-7.929688 3.550781-7.929688 7.929688v64c0 4.375 3.550781 7.925781 7.929688 7.925781zm0 0"/><path d="m287.929688 96c-4.457032-.003906-8.070313-3.617188-8.074219-8.070312 0-4.378907-3.550781-7.929688-7.925781-7.929688-4.378907 0-7.929688 3.550781-7.929688 7.929688 0 13.214843 10.714844 23.925781 23.929688 23.925781 13.214843 0 23.925781-10.710938 23.925781-23.925781 0-13.214844-10.710938-23.929688-23.925781-23.929688-4.460938 0-8.074219-3.613281-8.074219-8.070312 0-4.460938 3.613281-8.074219 8.074219-8.074219 4.457031 0 8.070312 3.613281 8.070312 8.074219 0 4.375 3.550781 7.925781 7.929688 7.925781 4.375 0 7.925781-3.550781 7.925781-7.925781 0-13.214844-10.710938-23.929688-23.925781-23.929688-13.214844 0-23.929688 10.714844-23.929688 23.929688 0 13.214843 10.714844 23.925781 23.929688 23.925781 4.457031 0 8.070312 3.613281 8.070312 8.074219 0 4.457031-3.613281 8.070312-8.070312 8.070312zm0 0"/><path d="m471.929688 143.855469c4.375 0 7.925781-3.550781 7.925781-7.925781v-128c0-4.378907-3.550781-7.929688-7.925781-7.929688h-464c-4.378907 0-7.929688 3.550781-7.929688 7.929688v128c0 4.375 3.550781 7.925781 7.929688 7.925781h8.070312v273.601562c-9.554688 3.34375-15.96875 12.347657-16 22.472657v32c0 4.375 3.550781 7.925781 7.929688 7.925781h64c4.375 0 7.925781-3.550781 7.925781-7.925781v-32c-.03125-10.125-6.441407-19.128907-16-22.472657v-33.601562h104.074219c4.375 0 7.925781-3.550781 7.925781-7.925781v-8.074219h40.074219c3.203124 0 6.09375-1.933594 7.320312-4.898438 1.226562-2.960937.546875-6.371093-1.722656-8.636719l-10.398438-10.390624 10.398438-10.402344c2.269531-2.265625 2.949218-5.675782 1.722656-8.636719-1.226562-2.964844-4.117188-4.898437-7.320312-4.898437h-48c-4.378907 0-7.929688 3.550781-7.929688 7.929687v8.070313h-96.144531v-192.136719h352.144531v192.144531h-96.144531v-8.070312c0-4.378907-3.550781-7.929688-7.925781-7.929688h-48c-3.207032 0-6.097657 1.933594-7.324219 4.898438-1.226563 2.960937-.546875 6.371093 1.722656 8.636718l10.398437 10.394532-10.398437 10.398437c-2.269531 2.265625-2.949219 5.675781-1.722656 8.636719 1.226562 2.964844 4.117187 4.898437 7.324219 4.898437h40.070312v8.066407c0 4.375 3.550781 7.925781 7.929688 7.925781h104.070312v33.601562c-9.554688 3.34375-15.96875 12.347657-16 22.472657v32c0 4.375 3.550781 7.925781 7.929688 7.925781h64c4.375 0 7.925781-3.550781 7.925781-7.925781v-32c-.03125-10.125-6.441407-19.128907-16-22.472657v-273.601562zm-456.074219-128h448.144531v112.144531h-448.144531zm48.144531 448.144531h-48.144531v-24.070312c.003906-4.457032 3.617187-8.070313 8.074219-8.074219h32c4.453124.003906 8.066406 3.617187 8.070312 8.074219zm111.855469-128.144531h20.929687l-2.457031 2.472656c-3.082031 3.097656-3.082031 8.101563 0 11.199219l2.464844 2.464844h-20.9375zm-15.855469 16v16.144531h-96.144531v-16.144531zm-112 64.144531h-16.144531v-272.144531h16.144531zm235.070312-64 2.457032-2.472656c3.085937-3.097656 3.085937-8.101563 0-11.199219l-2.464844-2.464844h20.929688v16.144531zm36.800782 16v-16.144531h96.128906v16.144531zm144.144531 96h-48.160156v-24.070312c.003906-4.457032 3.617187-8.070313 8.074219-8.074219h32c4.453124.003906 8.066406 3.617187 8.070312 8.074219zm-16-48h-16.160156v-272.144531h16.144531zm0 0"/><path d="m47.929688 79.855469h16c4.375 0 7.925781-3.550781 7.925781-7.925781 0-4.378907-3.550781-7.929688-7.925781-7.929688h-16c-4.378907 0-7.929688 3.550781-7.929688 7.929688 0 4.375 3.550781 7.925781 7.929688 7.925781zm0 0"/><path d="m415.929688 79.855469h16c4.375 0 7.925781-3.550781 7.925781-7.925781 0-4.378907-3.550781-7.929688-7.925781-7.929688h-16c-4.378907 0-7.929688 3.550781-7.929688 7.929688 0 4.375 3.550781 7.925781 7.929688 7.925781zm0 0"/></svg>