<svg height="480pt" viewBox="0 0 480.00478 480" width="480pt" xmlns="http://www.w3.org/2000/svg"><path d="m472.082031 434.203125c-10.457031-47.832031-52.71875-81.996094-101.679687-82.199219h-58.398438c-8.839844 0-16-7.164062-16-16v-16.359375c22.597656-13.917969 42.445313-38.808593 57.550782-67.273437 15.488281-3.804688 29-13.25 37.894531-26.484375 4.445312-7.242188 5.824219-15.953125 3.832031-24.210938-1.996094-8.253906-7.195312-15.378906-14.453125-19.789062-.402344-.234375-.800781-.378907-1.1875-.59375.417969-1.976563.867187-3.953125 1.226563-5.894531l.175781.070312c.941406.367188 1.949219.546875 2.960937.535156 4.417969 0 8-3.582031 8-8v-52.878906c-.007812-18.574219-10.757812-35.472656-27.578125-43.351562-25.59375-44.230469-72.738281-71.550782-123.839843-71.76953175-51.097657-.21875025-98.476563 26.69921875-124.449219 70.70312475-17.121094 7.761719-28.121094 24.820313-28.132813 43.617188v53.679687c-.003906 2.6875 1.34375 5.195313 3.582032 6.675782 2.238281 1.484374 5.074218 1.742187 7.542968.691406.363282 1.945312.800782 3.929687 1.226563 5.898437-.417969.230469-.800781.382813-1.25.632813-7.242188 4.414062-12.429688 11.53125-14.417969 19.777344-1.988281 8.246093-.609375 16.945312 3.828125 24.171874 8.894531 13.242188 22.402344 22.695313 37.886719 26.519532 15.089844 28.417968 34.953125 53.28125 57.601562 67.203125v24.429687c0 4.417969-3.582031 8-8 8h-66.402344c-48.960937.203125-91.222656 34.367188-101.679687 82.199219l-7.742187 36.121094c-.507813 2.363281.078124 4.828125 1.597656 6.710937 1.519531 1.878906 3.808594 2.96875 6.226562 2.96875h464c2.414063 0 4.703125-1.089844 6.222656-2.96875 1.519532-1.882812 2.105469-4.347656 1.601563-6.710937zm-92.328125-228.742187c1 4.117187.300782 8.460937-1.933594 12.054687-3.769531 5.410156-8.5625 10.03125-14.105468 13.601563 4.621094-10.796876 8.566406-21.871094 11.816406-33.160157 2.070312 2.066407 3.53125 4.660157 4.222656 7.503907zm-139.75-189.457032c38.808594.011719 75.515625 17.636719 99.789063 47.914063-65.480469-13.914063-133.121094-14.277344-198.75-1.074219 24.332031-29.609375 60.632812-46.792969 98.960937-46.839844zm-136 98.320313c-.011718-12.746094 7.558594-24.277344 19.253906-29.34375l9.160157-3.902344c35.191406-8.042969 71.183593-12.019531 107.28125-11.855469h.589843c36.089844.152344 72.042969 4.445313 107.152344 12.796875 0 0 8.761719 3.449219 8.945313 3.496094 11.902343 5.019531 19.636719 16.691406 19.617187 29.609375v41.078125l-23.320312-9.285156c-72.859375-26.886719-152.875-27.171875-225.921875-.800781l-22.757813 9.792968zm-1.832031 103.199219c-3.863281-6.246094-2.914063-14.328126 2.285156-19.511719 3.222657 11.257812 7.148438 22.304687 11.753907 33.074219-5.519532-3.578126-10.289063-8.195313-14.039063-13.601563zm36.476563 23.722656-.054688-.097656c-11.648438-22.726563-19.851562-47.058594-24.34375-72.199219l18.398438-7.945313c69.292968-24.917968 145.148437-24.609375 214.234374.871094l18.824219 7.488281c-8.65625 51.152344-41.175781 116.839844-81.519531 138.847657-13.488281 7.578124-28.667969 11.628906-44.136719 11.777343-7.511719-.007812-14.988281-1.003906-22.242187-2.960937-7.652344-2.078125-15.027344-5.0625-21.972656-8.886719-22.449219-12.273437-42.386719-37.863281-57.1875-66.9375zm61.355468 102.757812v-16.183594c25.554688 10.863282 54.429688 10.878907 80 .046876v8.136718c.058594 14.402344 9.734375 26.992188 23.636719 30.753906-3.53125 32.222657-30.601563 56.71875-63.015625 57.023438-32.417969.304688-59.941406-23.679688-64.078125-55.832031 13.019531-.296875 23.429687-10.921875 23.457031-23.945313zm-176.441406 93.601563c8.261719-37.71875 40.015625-65.734375 78.472656-69.226563l-20.496094 95.625h-63.640624zm74.335938 26.398437 20.574218-96h41.953125c4.214844 40.78125 38.578125 71.773438 79.578125 71.773438 40.996094 0 75.359375-30.992188 79.574219-71.773438h41.488281l13.710938 96zm293.046874 0-13.671874-95.695312c38.746093 3.183594 70.878906 31.28125 79.199218 69.257812l5.632813 26.4375zm0 0"/></svg>