<svg height="483pt" viewBox="-2 0 483 483.68293" width="483pt" xmlns="http://www.w3.org/2000/svg"><path d="m432.324219 112c-3.046875.015625-5.839844-1.699219-7.199219-4.425781l-15.042969-30.09375-22.238281-14.824219c-2.226562-1.484375-3.5625-3.980469-3.5625-6.65625s1.335938-5.171875 3.5625-6.65625l22.238281-14.824219 15.042969-30.09375c1.503906-2.523437 4.222656-4.070312 7.160156-4.070312 2.933594 0 5.65625 1.546875 7.15625 4.070312l15.042969 30.09375 22.238281 14.824219c2.226563 1.484375 3.5625 3.980469 3.5625 6.65625s-1.335937 5.171875-3.5625 6.65625l-22.238281 14.824219-14.960937 30.09375c-1.363282 2.726562-4.152344 4.441406-7.199219 4.425781zm-25.601563-56 14.015625 9.34375c1.15625.777344 2.09375 1.839844 2.722657 3.082031l8.863281 17.6875 8.800781-17.6875c.625-1.242187 1.5625-2.304687 2.71875-3.082031l14.078125-9.34375-14.039063-9.34375c-1.15625-.777344-2.089843-1.839844-2.71875-3.082031l-8.839843-17.6875-8.800781 17.6875c-.628907 1.242187-1.566407 2.304687-2.71875 3.082031zm0 0"/><path d="m48.324219 32h16v16h-16zm0 0"/><path d="m48.324219 64h16v16h-16zm0 0"/><path d="m64.324219 48h16v16h-16zm0 0"/><path d="m32.324219 48h16v16h-16zm0 0"/><path d="m440.324219 232h16v16h-16zm0 0"/><path d="m398.761719 427.632812c-16.511719-14.214843-25.683594-35.152343-24.925781-56.929687l.480468-12.503906c.652344-17.578125-4.039062-34.941407-13.457031-49.800781l-2.214844-3.542969c2.246094-1.160157 4.308594-2.640625 6.125-4.398438 10.488281-10.488281 9.089844-26.839843 7.738281-42.648437-1.527343-8.863282-1.222656-17.945313.894532-26.6875 4.554687-7.300782 10.542968-13.597656 17.601562-18.511719 11.855469-9.898437 25.320313-21.113281 25.320313-36.609375s-13.464844-26.710938-25.335938-36.609375c-7.0625-4.914063-13.046875-11.210937-17.601562-18.511719-2.117188-8.742187-2.421875-17.828125-.894531-26.695312 1.351562-15.800782 2.757812-32.144532-7.730469-42.632813s-26.839844-9.085937-42.636719-7.734375c-8.867188 1.523438-17.953125 1.21875-26.699219-.894531-7.296875-4.558594-13.59375-10.542969-18.511719-17.601563-9.878906-11.855468-21.09375-25.320312-36.589843-25.320312-15.496094 0-26.714844 13.464844-36.609375 25.335938-4.917969 7.058593-11.214844 13.046874-18.511719 17.601562-8.746094 2.113281-17.828125 2.417969-26.695313.894531-15.792968-1.359375-32.144531-2.769531-42.632812 7.726563s-9.085938 26.839844-7.734375 42.648437c1.523437 8.863281 1.21875 17.949219-.898437 26.6875-4.550782 7.300781-10.539063 13.597657-17.597657 18.511719-11.855469 9.882812-25.320312 21.097656-25.320312 36.59375s13.464843 26.710938 25.335937 36.609375c7.058594 4.914063 13.046875 11.210937 17.597656 18.511719 2.117188 8.742187 2.421876 17.828125.898438 26.695312-1.351562 15.800782-2.761719 32.144532 7.726562 42.632813 1.816407 1.761719 3.882813 3.25 6.136719 4.40625l-2.191406 3.503906c-9.4375 14.875-14.136719 32.261719-13.480469 49.863281l.480469 12.441406c.765625 21.785157-8.402344 42.738282-24.921875 56.960938l-22.230469 19.199219c-2.660156 2.308593-3.496093 6.085937-2.058593 9.304687 1.4375 3.214844 4.8125 5.113282 8.304687 4.671875l61.136719-8.175781 15.945312 27.101562c1.203125 2.046876 3.253906 3.457032 5.59375 3.839844 2.34375.386719 4.738282-.285156 6.535156-1.839844l22.246094-19.199218c20.199219-17.386719 31.375-43.03125 30.351563-69.664063l-.398438-12.421875c-.453125-13.675781 3.003907-27.199218 9.96875-38.976562 6.054688 6.3125 14.289063 10.078125 23.023438 10.535156 8.722656-.460938 16.949219-4.226562 23-10.527344 6.960937 11.785156 10.417969 25.3125 9.96875 38.992188l-.402344 12.367187c-1.019531 26.652344 10.175781 52.316407 30.402344 69.703125l22.238281 19.199219c1.796875 1.554687 4.191406 2.226563 6.53125 1.84375 2.34375-.386719 4.394531-1.796875 5.597656-3.84375l15.941406-27.101563 61.121094 8.167969c3.507813.46875 6.90625-1.421875 8.355469-4.648437 1.449219-3.226563.609375-7.023438-2.066406-9.335938zm-206.992188-34.21875c.84375 21.789063-8.285156 42.773438-24.796875 57.011719l-15.015625 12.933594-13.777343-23.414063c-1.625-2.804687-4.792969-4.335937-8-3.875l-39.785157 5.320313 1.921875-1.664063c20.179688-17.378906 31.375-42.980468 30.4375-69.597656l-.480468-12.457031c-.527344-14.390625 3.320312-28.601563 11.035156-40.761719l4.957031-7.933594c6.746094.203126 13.492187-.050781 20.203125-.761718 8.863281-1.523438 17.949219-1.21875 26.695312.898437 7.296876 4.554688 13.59375 10.539063 18.511719 17.597657l2.191407 2.617187-1.167969 1.847656c-9.335938 14.90625-13.992188 32.269531-13.367188 49.847657zm48.554688-57.414062c-8 0-16.296875-9.953125-24.3125-19.574219-6.414063-9.179687-14.859375-16.75-24.679688-22.128906-5.800781-2.167969-11.964843-3.179687-18.152343-2.976563-5.257813 0-10.6875.464844-16 .917969-7.109376.902344-14.292969 1.050781-21.433594.441407-.160156 0-.3125-.070313-.472656-.09375-2.976563-.292969-5.792969-1.496094-8.0625-3.449219-5.222657-5.226563-4.144532-17.800781-3.09375-29.960938 1.945312-11.402343 1.242187-23.097656-2.058594-34.183593-5.375-9.820313-12.945313-18.265626-22.128906-24.671876-9.65625-8.023437-19.605469-16.320312-19.605469-24.320312s9.949219-16.296875 19.574219-24.320312c9.179687-6.40625 16.753906-14.851563 22.128906-24.671876 3.304687-11.09375 4.007812-22.796874 2.054687-34.207031-1.046875-12.167969-2.117187-24.746093 3.105469-29.976562s17.816406-4.144531 29.96875-3.105469c11.398438 1.957031 23.09375 1.253906 34.175781-2.046875 9.820313-5.378906 18.265625-12.949219 24.679688-22.128906 8.015625-9.589844 16.3125-19.542969 24.3125-19.542969s16.296875 9.953125 24.3125 19.574219c6.414062 9.179687 14.859375 16.75 24.679687 22.128906 11.09375 3.304687 22.796875 4.007813 34.207032 2.058594 12.144531-1.042969 24.742187-2.121094 29.96875 3.101562 5.222656 5.226563 4.144531 17.800781 3.09375 29.960938-1.945313 11.402343-1.242188 23.097656 2.058593 34.183593 5.371094 9.820313 12.945313 18.265626 22.125 24.671876 9.601563 8.023437 19.554688 16.320312 19.554688 24.320312s-9.953125 16.296875-19.578125 24.320312c-9.179688 6.40625-16.753906 14.851563-22.125 24.671876-3.308594 11.09375-4.011719 22.796874-2.058594 34.207031 1.046875 12.167969 2.121094 24.746093-3.101562 29.976562-2.261719 1.945313-5.070313 3.148438-8.042969 3.441407-.175781 0-.335938.070312-.511719.109374-7.132812.601563-14.3125.453126-21.414062-.445312-11.398438-1.957031-23.09375-1.253906-34.175782 2.046875-9.820312 5.378906-18.265625 12.949219-24.679687 22.128906-8.015625 9.589844-16.3125 19.542969-24.3125 19.542969zm110.101562 100.070312c-3.191406-.445312-6.339843 1.085938-7.957031 3.875l-13.777344 23.414063-14.976562-12.960937c-16.523438-14.25-25.652344-35.25-24.800782-57.054688l.402344-12.375c.628906-17.609375-4.042968-35.003906-13.410156-49.929688l-1.183594-1.757812 2.199219-2.617188c4.917969-7.058593 11.214844-13.046874 18.511719-17.601562 8.746094-2.113281 17.832031-2.417969 26.699218-.894531 6.707032.71875 13.457032.972656 20.199219.761719l4.984375 8c7.695313 12.132812 11.539063 26.3125 11.015625 40.671874l-.480469 12.519532c-.9375 26.617187 10.261719 52.21875 30.449219 69.597656l1.910157 1.65625zm0 0"/><path d="m352.324219 176c0-61.855469-50.144531-112-112-112s-112 50.144531-112 112 50.144531 112 112 112c61.828125-.066406 111.933593-50.171875 112-112zm-112 96c-53.019531 0-96-42.980469-96-96s42.980469-96 96-96 96 42.980469 96 96c-.058594 52.996094-43.003907 95.941406-96 96zm0 0"/><path d="m315.179688 154.089844c-1.949219-6.023438-7.558594-10.097656-13.886719-10.089844h-36l-11.121094-34.207031c-1.953125-6.019531-7.558594-10.097657-13.886719-10.097657s-11.9375 4.078126-13.890625 10.097657l-11.078125 34.207031h-35.960937c-6.320313.007812-11.917969 4.078125-13.871094 10.085938-1.953125 6.007812.179687 12.59375 5.285156 16.3125l29.097657 21.136718-11.113282 34.226563c-1.960937 6.015625.179688 12.613281 5.300782 16.332031 5.121093 3.71875 12.054687 3.71875 17.171874-.003906l29.097657-21.144532 29.101562 21.152344c5.121094 3.707032 12.046875 3.699219 17.160157-.019531 5.113281-3.71875 7.253906-10.304687 5.304687-16.316406l-11.113281-34.210938 29.097656-21.152343c5.125-3.707032 7.265625-10.296876 5.304688-16.308594zm-44.640626 25.117187c-5.117187 3.71875-7.257812 10.3125-5.296874 16.328125l10.105468 31.089844-26.398437-19.199219c-5.117188-3.734375-12.054688-3.734375-17.171875 0l-26.398438 19.199219 10.105469-31.089844c1.960937-6.015625-.179687-12.613281-5.304687-16.328125l-26.527344-19.207031h32.671875c6.328125.011719 11.9375-4.066406 13.878906-10.089844l10.121094-31.085937 10.101562 31.085937c1.945313 6.027344 7.566407 10.105469 13.898438 10.089844h32.6875zm0 0"/><path d="m92.761719 294.65625c2.167969-1.210938 3.589843-3.421875 3.789062-5.894531.199219-2.476563-.847656-4.886719-2.796875-6.425781.167969-.121094-.078125-.382813-.992187-.992188h-.046875l-22.183594-14.785156-15.007812-30.132813c-1.503907-2.523437-4.222657-4.070312-7.160157-4.070312s-5.65625 1.546875-7.160156 4.070312l-15.039063 30.09375-22.226562 14.785157h-.046875c-2.21875 1.484374-3.550781 3.976562-3.550781 6.648437 0 2.667969 1.332031 5.160156 3.550781 6.648437l22.242187 14.824219 15.039063 30.09375c1.351563 2.714844 4.125 4.433594 7.160156 4.433594 3.03125 0 5.804688-1.71875 7.160157-4.433594l15.039062-30.09375zm-35.597657 5.769531-8.839843 17.6875-8.800781-17.6875c-.628907-1.242187-1.566407-2.304687-2.71875-3.082031l-14.082032-9.34375 14.015625-9.34375c1.15625-.777344 2.09375-1.839844 2.722657-3.082031l8.863281-17.6875 8.839843 17.6875c.628907 1.242187 1.5625 2.304687 2.71875 3.082031l14.039063 9.34375-14.039063 9.34375c-1.15625.777344-2.089843 1.839844-2.71875 3.082031zm0 0"/><path d="m424.324219 216h16v16h-16zm0 0"/><path d="m424.324219 248h16v16h-16zm0 0"/><path d="m408.324219 232h16v16h-16zm0 0"/></svg>