<svg height="480pt" viewBox="0 0 480.00179 480" width="480pt" xmlns="http://www.w3.org/2000/svg"><path d="m432 112c-3.046875.015625-5.839844-1.699219-7.199219-4.421875l-12.160156-24.378906c-1.867187-3.730469-4.671875-6.914063-8.144531-9.230469l-16.9375-11.3125c-2.222656-1.484375-3.558594-3.980469-3.558594-6.65625 0-2.671875 1.335938-5.171875 3.558594-6.65625l16.9375-11.285156c3.472656-2.324219 6.28125-5.515625 8.144531-9.257813l12.199219-24.40625c1.503906-2.523437 4.222656-4.070312 7.160156-4.070312s5.65625 1.546875 7.160156 4.070312l12.199219 24.40625c1.867187 3.734375 4.671875 6.914063 8.144531 9.230469l16.9375 11.289062c2.222656 1.484376 3.558594 3.980469 3.558594 6.65625 0 2.675782-1.335938 5.171876-3.558594 6.65625l-16.9375 11.289063c-3.476562 2.328125-6.285156 5.527344-8.144531 9.277344l-12.160156 24.378906c-1.359375 2.722656-4.152344 4.4375-7.199219 4.421875zm-25.601562-56 6.945312 4.632812c5.796875 3.863282 10.484375 9.171876 13.601562 15.398438l5.054688 10.089844 5.046875-10.089844c3.117187-6.226562 7.804687-11.535156 13.601563-15.398438l6.953124-4.632812-6.945312-4.632812c-5.796875-3.859376-10.484375-9.167969-13.601562-15.398438l-5.054688-10.085938-5.046875 10.117188c-3.117187 6.226562-7.804687 11.535156-13.601563 15.394531zm37.777343 23.601562"/><path d="m416 424c-2.675781 0-5.171875-1.335938-6.65625-3.558594l-12.457031-18.679687c-1.753907-2.640625-4.015625-4.902344-6.65625-6.65625l-18.671875-12.449219c-2.222656-1.484375-3.558594-3.980469-3.558594-6.65625 0-2.671875 1.335938-5.171875 3.558594-6.65625l18.671875-12.445312c2.640625-1.757813 4.902343-4.019532 6.65625-6.65625l12.457031-18.679688c1.570312-2.101562 4.035156-3.335938 6.65625-3.335938s5.085938 1.234376 6.65625 3.335938l12.457031 18.679688c1.753907 2.636718 4.015625 4.898437 6.65625 6.65625l18.671875 12.445312c2.222656 1.484375 3.558594 3.984375 3.558594 6.65625 0 2.675781-1.335938 5.171875-3.558594 6.65625l-18.671875 12.449219c-2.640625 1.753906-4.902343 4.015625-6.65625 6.65625l-12.457031 18.679687c-1.484375 2.222656-3.980469 3.558594-6.65625 3.558594zm-25.601562-48 8.691406 5.792969c4.390625 2.929687 8.160156 6.699219 11.085937 11.097656l5.824219 8.710937 5.800781-8.6875c2.925781-4.398437 6.691407-8.167968 11.085938-11.097656l8.714843-5.816406-8.691406-5.792969c-4.390625-2.925781-8.160156-6.699219-11.085937-11.09375l-5.824219-8.710937-5.800781 8.6875c-2.925781 4.394531-6.691407 8.167968-11.085938 11.09375zm38.035156 21.328125"/><path d="m143.199219 380.425781c-.691407-1.292969-1.730469-2.363281-3-3.089843-.167969-.195313-.363281-.363282-.582031-.496094l-22.496094-11.238282c-4.632813-2.332031-8.390625-6.089843-10.722656-10.71875l-11.199219-22.457031c-1.503907-2.523437-4.222657-4.066406-7.160157-4.066406-2.933593 0-5.65625 1.542969-7.160156 4.066406l-11.277344 22.457031c-2.332031 4.628907-6.089843 8.386719-10.722656 10.71875l-22.453125 11.199219c-.222656.132813-.417969.300781-.585937.496094-1.269532.726563-2.308594 1.796875-3 3.089844-.976563 1.90625-1.144532 4.125-.46875 6.15625.671875 2.03125 2.132812 3.710937 4.054687 4.65625l22.453125 11.203125c4.632813 2.328125 8.390625 6.085937 10.722656 10.71875l11.199219 22.457031c1.351563 2.714844 4.125 4.429687 7.160157 4.429687 3.03125 0 5.804687-1.714843 7.160156-4.429687l11.199218-22.457031c2.351563-4.644532 6.136719-8.402344 10.800782-10.71875l22.453125-11.203125c1.917969-.9375 3.378906-2.605469 4.0625-4.628907.679687-2.027343.523437-4.238281-.4375-6.144531zm-33.199219 7.648438c-7.726562 3.886719-14 10.160156-17.886719 17.886719l-4.113281 8.144531-4.070312-8.144531c-3.890626-7.726563-10.160157-14-17.890626-17.886719l-8.152343-4.074219 8.152343-4.070312c7.730469-3.890626 14-10.160157 17.890626-17.890626l4.070312-8.140624 4.070312 8.140624c3.890626 7.730469 10.160157 14 17.890626 17.890626l8.152343 4.070312zm0 0"/><path d="m48 32h16v16h-16zm0 0"/><path d="m48 64h16v16h-16zm0 0"/><path d="m64 48h16v16h-16zm0 0"/><path d="m32 48h16v16h-16zm0 0"/><path d="m16 192h16v16h-16zm0 0"/><path d="m16 224h16v16h-16zm0 0"/><path d="m32 208h16v16h-16zm0 0"/><path d="m0 208h16v16h-16zm0 0"/><path d="m424 248h16v16h-16zm0 0"/><path d="m424 280h16v16h-16zm0 0"/><path d="m440 264h16v16h-16zm0 0"/><path d="m408 264h16v16h-16zm0 0"/><path d="m224 232c-2.121094 0-4.15625-.84375-5.65625-2.34375l-48.566406-48.566406c-3.125-3.125-3.125-8.1875 0-11.3125l16.964844-16.976563c3.125-3.121093 8.191406-3.121093 11.3125 0l25.945312 25.945313 62.222656-62.226563c1.5-1.5 3.535156-2.34375 5.65625-2.34375s4.15625.84375 5.65625 2.34375l16.96875 16.976563c3.125 3.125 3.125 8.1875 0 11.3125l-84.847656 84.847656c-1.5 1.5-3.535156 2.34375-5.65625 2.34375zm-37.257812-56.566406 37.257812 37.253906 73.535156-73.535156-5.65625-5.664063-62.222656 62.226563c-3.125 3.121094-8.1875 3.121094-11.3125 0l-25.945312-25.9375zm0 0"/><path d="m390.664062 139.394531c-7.058593-4.917969-13.046874-11.214843-17.601562-18.511719-2.113281-8.746093-2.421875-17.832031-.894531-26.699218 1.351562-15.796875 2.761719-32.144532-7.726563-42.628906-10.488281-10.488282-26.839844-9.089844-42.640625-7.738282-8.867187 1.527344-17.953125 1.222656-26.695312-.894531-7.296875-4.554687-13.597657-10.542969-18.511719-17.601563-9.882812-11.855468-21.097656-25.320312-36.59375-25.320312s-26.710938 13.464844-36.609375 25.335938c-4.917969 7.058593-11.214844 13.046874-18.511719 17.601562-8.742187 2.117188-17.828125 2.421875-26.695312.894531-15.792969-1.367187-32.144532-2.757812-42.632813 7.730469s-9.085937 26.839844-7.734375 42.644531c1.523438 8.867188 1.21875 17.949219-.894531 26.691407-4.554687 7.296874-10.542969 13.59375-17.601563 18.511718-11.855468 9.878906-25.320312 21.09375-25.320312 36.589844s13.464844 26.714844 25.335938 36.609375c7.058593 4.914063 13.046874 11.210937 17.601562 18.511719 2.113281 8.746094 2.421875 17.828125.894531 26.695312-1.351562 15.800782-2.761719 32.144532 7.726563 42.632813 10.488281 10.488281 26.832031 9.078125 42.640625 7.734375l1.800781-.144532v163.960938c0 2.953125 1.625 5.664062 4.226562 7.054688 2.601563 1.394531 5.757813 1.238281 8.214844-.398438l67.558594-45.054688 67.558594 45.039063c2.453125 1.636719 5.609375 1.792969 8.207031.402344 2.601563-1.386719 4.230469-4.09375 4.234375-7.042969v-163.960938l1.816406.144532c15.792969 1.351562 32.136719 2.753906 42.632813-7.726563 10.496093-10.480469 9.085937-26.839843 7.734375-42.648437-1.523438-8.863282-1.21875-17.945313.894531-26.6875 4.554687-7.300782 10.542969-13.597656 17.601563-18.511719 11.855468-9.894531 25.320312-21.113281 25.320312-36.609375s-13.464844-26.710938-25.335938-36.605469zm-214.664062 168.109375c3.027344.050782 6.027344.589844 8.878906 1.601563 2.640625 1.238281 5.050782 2.921875 7.121094 4.976562v132.320313l-16 10.636718zm59.558594 109.832032-27.558594 18.378906v-103.609375c8.800781 10.191406 18.855469 19.894531 32 19.894531s23.199219-9.703125 32-19.894531v103.609375l-27.558594-18.402344c-2.695312-1.785156-6.199218-1.777344-8.882812.023438zm52.441406 29.066406v-132.34375c2.070312-2.054688 4.480469-3.738282 7.121094-4.976563 2.851562-1.015625 5.851562-1.554687 8.878906-1.601562v149.558593zm92.425781-246.082032c-9.183593 6.40625-16.753906 14.851563-22.128906 24.671876-3.308594 11.09375-4.011719 22.800781-2.058594 34.207031 1.050781 12.167969 2.121094 24.746093-3.101562 29.976562-5.226563 5.234375-17.808594 4.152344-29.96875 3.105469-11.398438-1.953125-23.09375-1.253906-34.175781 2.046875-9.820313 5.378906-18.265626 12.953125-24.679688 22.128906-8.015625 9.59375-16.3125 19.542969-24.3125 19.542969s-16.296875-9.949219-24.3125-19.574219c-6.414062-9.179687-14.859375-16.75-24.679688-22.128906-5.796874-2.167969-11.964843-3.179687-18.152343-2.976563-5.253907 0-10.6875.464844-16 .921876-12.136719 1.054687-24.726563 2.125-29.96875-3.105469-5.238281-5.230469-4.144531-17.800781-3.09375-29.960938 1.949219-11.398437 1.242187-23.097656-2.058594-34.183593-5.371094-9.820313-12.945313-18.265626-22.125-24.671876-9.65625-8.023437-19.609375-16.320312-19.609375-24.320312s9.953125-16.296875 19.574219-24.320312c9.183593-6.40625 16.753906-14.851563 22.128906-24.671876 3.308594-11.09375 4.011719-22.796874 2.058594-34.207031-1.050781-12.167969-2.121094-24.742187 3.101562-29.976562 5.226563-5.230469 17.816407-4.144531 29.96875-3.101563 11.398438 1.949219 23.09375 1.246094 34.175781-2.050781 9.820313-5.378906 18.265626-12.949219 24.679688-22.128906 8.015625-9.589844 16.3125-19.542969 24.3125-19.542969s16.296875 9.953125 24.3125 19.578125c6.414062 9.175781 14.859375 16.75 24.679688 22.125 11.09375 3.3125 22.800781 4.015625 34.207031 2.058594 12.144531-1.046875 24.746093-2.121094 29.96875 3.101562 5.222656 5.226563 4.144531 17.800781 3.097656 29.960938-1.949219 11.402343-1.246094 23.097656 2.054687 34.183593 5.375 9.820313 12.949219 18.265626 22.128907 24.671876 9.597656 8.023437 19.550781 16.320312 19.550781 24.320312s-9.953125 16.296875-19.574219 24.320312zm0 0"/><path d="m240 64c-61.855469 0-112 50.144531-112 112s50.144531 112 112 112 112-50.144531 112-112c-.066406-61.828125-50.171875-111.933594-112-112zm0 208c-53.019531 0-96-42.980469-96-96s42.980469-96 96-96 96 42.980469 96 96c-.058594 52.996094-43.003906 95.945312-96 96zm0 0"/></svg>