<svg height="480pt" viewBox="-96 0 480 480.19612" width="480pt" xmlns="http://www.w3.org/2000/svg"><path d="m208.097656 207.199219v-23.199219h16c22.082032-.027344 39.972656-17.917969 40-40v-8c-.097656-16.371094-10.164062-31.027344-25.40625-37l48.398438-87.113281c1.378906-2.476563 1.34375-5.5-.09375-7.941407-1.4375-2.445312-4.0625-3.945312-6.898438-3.945312h-104c-2.789062 0-5.378906 1.449219-6.832031 3.832031l-25.167969 41.207031-25.167968-41.207031c-1.453126-2.382812-4.042969-3.832031-6.832032-3.832031h-104c-2.835937 0-5.457031 1.5-6.894531 3.945312-1.4375 2.441407-1.476563 5.464844-.097656 7.941407l48.410156 87.113281c-15.246094 5.96875-25.316406 20.628906-25.417969 37v8c.027344 22.082031 17.921875 39.972656 40 40h16v23.199219c-59.898437 29.71875-91.460937 96.761719-76.199218 161.863281 15.261718 65.101562 73.332031 111.132812 140.199218 111.132812 66.867188 0 124.9375-46.03125 140.199219-111.132812s-16.296875-132.144531-76.199219-161.863281zm12-71.199219c2.210938 0 4 1.789062 4 4s-1.789062 4-4 4h-6.398437l4.445312-8zm-39.511718-120h85.914062l-71.105469 128h-93.046875zm-112.488282 128c-2.207031 0-4-1.789062-4-4s1.792969-4 4-4h20.402344l-4.890625 8zm39.511719-128 27.105469 44.375-21.769532 35.625h-46.789062l-44.457031-80zm-67.511719 128v-8c.050782-12.472656 9.632813-22.839844 22.066406-23.863281.269532 0 1.597657-.136719 1.933594-.136719h39.074219l-4.890625 8h-30.183594c-11.046875 0-20 8.953125-20 20s8.953125 20 20 20h152c9.800782.023438 18.164063-7.078125 19.730469-16.75 1.570313-9.675781-4.121094-19.054688-13.425781-22.128906l4.480468-8.058594c10.167969 3.015625 17.164063 12.332031 17.214844 22.9375v8c0 13.253906-10.746094 24-24 24h-160c-13.253906 0-24-10.746094-24-24zm56 40h96v16.398438c-31.019531-11.199219-64.980468-11.199219-96 0zm48 280c-70.691406 0-128-57.308594-128-128s57.308594-128 128-128 128 57.308594 128 128c-.082031 70.65625-57.339844 127.917969-128 128zm0 0"/><path d="m144.097656 240c-53.019531 0-96 42.980469-96 96s42.980469 96 96 96c53.019532 0 96-42.980469 96-96-.054687-52.996094-43.003906-95.941406-96-96zm0 176c-44.183594 0-80-35.816406-80-80s35.816406-80 80-80 80 35.816406 80 80c-.046875 44.164062-35.835937 79.953125-80 80zm0 0"/><path d="m208.5625 315.054688c-2.078125-6.640626-8.265625-11.132813-15.222656-11.054688h-25.992188l-8-24.71875c-2.160156-6.566406-8.289062-11.003906-15.203125-11.003906-6.910156 0-13.039062 4.4375-15.199219 11.003906l-8 24.71875h-26.085937c-6.933594 0-13.078125 4.460938-15.21875 11.054688-2.144531 6.59375.203125 13.816406 5.808594 17.890624l21.023437 15.277344-8 24.722656c-2.144531 6.59375.203125 13.824219 5.8125 17.898438 5.613282 4.074219 13.214844 4.070312 18.820313-.011719l20.992187-15.28125 21.023438 15.28125c5.585937 4.148438 13.230468 4.148438 18.816406 0 5.671875-4.027343 8.035156-11.296875 5.816406-17.886719l-8.054687-24.722656 21.03125-15.277344c5.675781-4.027343 8.046875-11.292968 5.832031-17.890624zm-36.257812 20.226562c-5.605469 4.074219-7.949219 11.296875-5.804688 17.886719l8 24.71875-21.027344-15.269531c-5.601562-4.09375-13.210937-4.09375-18.8125 0l-20.960937 15.269531 8-24.71875c2.144531-6.589844-.199219-13.808594-5.800781-17.886719l-21.039063-15.28125h25.992187c6.941407.011719 13.101563-4.453125 15.246094-11.054688l8-24.800781v.09375l8 24.722657c2.152344 6.597656 8.308594 11.054687 15.25 11.039062h25.992188zm0 0"/></svg>