<svg height="480pt" viewBox="-92 0 480 480" width="480pt" xmlns="http://www.w3.org/2000/svg"><path d="m136 328c-2.128906.019531-4.171875-.816406-5.679688-2.320312-.703124-.777344-1.273437-1.671876-1.679687-2.640626-.851563-1.9375-.851563-4.140624 0-6.078124.386719-.980469.957031-1.875 1.679687-2.640626.777344-.707031 1.671876-1.273437 2.640626-1.679687 1.945312-.808594 4.132812-.808594 6.078124 0 2.011719.726563 3.59375 2.308594 4.320313 4.320313.855469 1.9375.855469 4.140624 0 6.078124-.40625.96875-.976563 1.863282-1.679687 2.640626-1.507813 1.503906-3.550782 2.339843-5.679688 2.320312zm0 0"/><path d="m160 328c-1.046875-.011719-2.078125-.230469-3.039062-.640625-.96875-.40625-1.863282-.972656-2.640626-1.679687-.703124-.777344-1.273437-1.671876-1.679687-2.640626-.851563-1.9375-.851563-4.140624 0-6.078124.40625-.96875.972656-1.863282 1.679687-2.640626 3.207032-2.960937 8.152344-2.960937 11.359376 0 .722656.765626 1.292968 1.660157 1.679687 2.640626.855469 1.9375.855469 4.140624 0 6.078124-.40625.96875-.976563 1.863282-1.679687 2.640626-1.507813 1.503906-3.550782 2.339843-5.679688 2.320312zm0 0"/><path d="m112 328c-1.046875-.011719-2.078125-.230469-3.039062-.640625-.96875-.40625-1.863282-.972656-2.640626-1.679687-.703124-.777344-1.273437-1.671876-1.679687-2.640626-.851563-1.9375-.851563-4.140624 0-6.078124.386719-.980469.957031-1.875 1.679687-2.640626 3.207032-2.960937 8.152344-2.960937 11.359376 0 .707031.777344 1.273437 1.671876 1.679687 2.640626.855469 1.9375.855469 4.140624 0 6.078124-.40625.96875-.976563 1.863282-1.679687 2.640626-.777344.707031-1.671876 1.273437-2.640626 1.679687-.960937.410156-1.992187.628906-3.039062.640625zm0 0"/><path d="m280 152h-8v-24c-.027344-22.082031-17.917969-39.972656-40-40h-8v-64c0-13.253906-10.746094-24-24-24h-128c-13.253906 0-24 10.746094-24 24v64h-8c-22.082031.027344-39.9726562 17.917969-40 40v224c.0273438 22.082031 17.917969 39.972656 40 40h8v64c0 13.253906 10.746094 24 24 24h128c13.253906 0 24-10.746094 24-24v-64h8c22.082031-.027344 39.972656-17.917969 40-40v-136h8c8.835938 0 16-7.164062 16-16v-32c0-8.835938-7.164062-16-16-16zm-216-128c0-4.417969 3.582031-8 8-8h128c4.417969 0 8 3.582031 8 8v64h-144zm144 432c0 4.417969-3.582031 8-8 8h-128c-4.417969 0-8-3.582031-8-8v-64h144zm48-104c0 13.253906-10.746094 24-24 24h-192c-13.253906 0-24-10.746094-24-24v-224c0-13.253906 10.746094-24 24-24h192c13.253906 0 24 10.746094 24 24zm16-152v-32h8v32zm0 0"/><path d="m232 120h-192c-4.417969 0-8 3.582031-8 8v224c0 4.417969 3.582031 8 8 8h192c4.417969 0 8-3.582031 8-8v-224c0-4.417969-3.582031-8-8-8zm-8 224h-176v-208h176zm0 0"/><path d="m120 281.9375c-4.417969 0-8-3.582031-8-8v-67.875c0-3.082031 1.769531-5.894531 4.550781-7.222656 2.785157-1.328125 6.082031-.941406 8.480469 1l41.945312 33.945312c1.875 1.519532 2.964844 3.800782 2.964844 6.214844s-1.089844 4.695312-2.964844 6.214844l-41.945312 33.945312c-1.425781 1.148438-3.199219 1.777344-5.03125 1.777344zm8-59.105469v34.335938l21.222656-17.167969zm0 0"/><path d="m176 259.3125v-38.625l19.3125 19.3125zm0 0"/><path d="m200 259.3125v-38.625l19.3125 19.3125zm0 0"/><path d="m96 259.3125-19.3125-19.3125 19.3125-19.3125zm0 0"/><path d="m72 259.3125-19.3125-19.3125 19.3125-19.3125zm0 0"/></svg>