<svg height="480pt" viewBox="0 -1 480 479" width="480pt" xmlns="http://www.w3.org/2000/svg"><path d="m472 430.183594h-16v-120c0-4.417969-3.582031-8-8-8h-128v-88c0-4.417969-3.582031-8-8-8h-144c-4.417969 0-8 3.582031-8 8v56h-128c-4.417969 0-8 3.582031-8 8v152h-16c-4.417969 0-8 3.582031-8 8v32c0 4.417968 3.582031 8 8 8h464c4.417969 0 8-3.582032 8-8v-32c0-4.417969-3.582031-8-8-8zm-32-112v112h-120v-112zm-264-96h128v208h-128zm-136 64h120v144h-120zm424 176h-448v-16h448zm0 0"/><path d="m152 97.601562 26.847656 19.503907c2.804688 2.035156 3.976563 5.648437 2.90625 8.941406l-10.234375 31.554687c-3.214843 9.886719.304688 20.722657 8.71875 26.835938 8.414063 6.109375 19.804688 6.109375 28.21875-.003906l26.839844-19.496094c2.804687-2.039062 6.601563-2.039062 9.40625 0l26.839844 19.496094c8.375 6.226562 19.84375 6.226562 28.21875 0 8.507812-6.042969 12.050781-16.945313 8.71875-26.832032l-10.257813-31.554687c-1.070312-3.292969.101563-6.90625 2.90625-8.941406l26.871094-19.503907c8.414062-6.117187 11.933594-16.957031 8.714844-26.847656-3.222656-9.890625-12.449219-16.582031-22.851563-16.570312h-33.175781c-3.464844 0-6.535156-2.230469-7.609375-5.527344l-10.246094-31.550781c-3.207031-9.898438-12.425781-16.605469-22.832031-16.605469s-19.625 6.707031-22.832031 16.605469l-10.238281 31.550781c-1.074219 3.296875-4.148438 5.53125-7.617188 5.527344h-33.175781c-10.402344-.011719-19.628907 6.679687-22.851563 16.570312-3.21875 9.890625.300782 20.730469 8.714844 26.847656zm6.503906-21.890624c1.007813-3.351563 4.132813-5.613282 7.632813-5.527344h33.175781c10.398438.003906 19.617188-6.691406 22.832031-16.582032l10.246094-31.554687c1.082031-3.28125 4.144531-5.5 7.601563-5.5 3.457031 0 6.519531 2.21875 7.601562 5.5l10.253906 31.5625c3.203125 9.898437 12.433594 16.601563 22.839844 16.574219h33.175781c3.464844 0 6.539063 2.230468 7.609375 5.527344 1.074219 3.296874-.101562 6.90625-2.90625 8.945312l-26.847656 19.503906c-8.410156 6.109375-11.929688 16.941406-8.71875 26.832032l10.257812 31.550781c1.066407 3.296875-.109374 6.902343-2.910156 8.9375-2.800781 2.035156-6.589844 2.039062-9.394531.007812l-26.839844-19.496093c-8.410156-6.132813-19.816406-6.132813-28.226562 0l-26.839844 19.496093c-2.804687 2.03125-6.59375 2.027344-9.394531-.007812-2.800782-2.035157-3.976563-5.640625-2.910156-8.9375l10.257812-31.558594c3.210938-9.890625-.308594-20.722656-8.71875-26.832031l-26.847656-19.503906c-2.867188-1.988282-4.054688-5.644532-2.90625-8.9375zm0 0"/><path d="m216 334.183594c-4.417969 0-8 3.582031-8 8 0 4.417968 3.582031 8 8 8h48c4.417969 0 8-3.582032 8-8 0-4.417969-3.582031-8-8-8h-16v-72c0-3.234375-1.949219-6.152344-4.9375-7.390625-2.988281-1.234375-6.429688-.550781-8.71875 1.734375l-24 24c-3.03125 3.140625-2.988281 8.128906.097656 11.214844 3.085938 3.085937 8.074219 3.128906 11.214844.097656l10.34375-10.34375v52.6875zm0 0"/></svg>