<svg height="479pt" viewBox="-1 0 479 479.36671" width="479pt" xmlns="http://www.w3.org/2000/svg"><path d="m72.183594 144c-39.765625 0-72-32.234375-72-72s32.234375-72 72-72 72 32.234375 72 72c-.042969 39.746094-32.253906 71.957031-72 72zm0-128c-30.929688 0-56 25.070312-56 56s25.070312 56 56 56c30.925781 0 56-25.070312 56-56-.035156-30.914062-25.085938-55.964844-56-56zm0 0"/><path d="m464.449219 386.472656-233-230.402344 16.734375-16.757812 63.785156 63.785156c10.050781 10.390625 24.925781 14.546875 38.90625 10.878906 13.984375-3.671874 24.898438-14.601562 28.546875-28.589843 3.652344-13.984375-.53125-28.855469-10.933594-38.890625l-80.730469-80.800782c-21.851562-21.867187-57.296874-21.867187-79.152343 0l-110.148438 112.703126c-1.460937 1.5-2.277343 3.507812-2.273437 5.601562v32h-56c-11.304688.003906-22.078125 4.785156-29.660156 13.171875-7.582032 8.382813-11.261719 19.582031-10.132813 30.828125 2.628906 20.738281 20.378906 36.21875 41.28125 36h102.511719c13.253906 0 24-10.746094 24-24v-4.6875l16.207031 16.207031-32.421875 32.425781c-21.824219 21.859376-21.824219 57.265626 0 79.125l72 72c10.035156 10.453126 24.941406 14.660157 38.960938 10.996094 14.023437-3.660156 24.964843-14.621094 28.605468-28.648437 3.640625-14.027344-.585937-28.925781-11.054687-38.945313l-55.042969-55.023437 46.96875-47.945313 135.5625 135.59375c10.027344 10.5 24.960938 14.738282 39.011719 11.074219 14.054687-3.664063 25.015625-14.652344 28.644531-28.714844 3.625-14.058593-.652344-28.980469-11.175781-38.984375zm-11.28125 45.3125c-9.484375 9.046875-24.40625 9.046875-33.886719 0l-141.28125-141.289062c-3.125-3.125-8.1875-3.125-11.3125 0v.039062l-58.160156 59.367188c-3.070313 3.132812-3.046875 8.15625.054687 11.257812l60.65625 60.65625c4.523438 4.492188 7.066407 10.601563 7.066407 16.976563 0 6.371093-2.542969 12.484375-7.066407 16.976562-9.480469 9.050781-24.40625 9.050781-33.886719 0l-72-72c-15.59375-15.617187-15.59375-40.914062 0-56.53125l38.078126-38.078125c2.753906-2.796875 3.035156-7.195312.65625-10.320312-.113282-.386719-.34375-.734375-.65625-.992188l-35.511719-35.511718c-2.28125-2.347657-5.757813-3.066407-8.785157-1.820313-3.023437 1.246094-4.984374 4.210937-4.949218 7.484375v24c0 4.417969-3.582032 8-8 8h-102.511719c-12.710937.273438-23.609375-9.007812-25.359375-21.601562-.714844-6.753907 1.496094-13.492188 6.070312-18.511719 4.558594-5.019531 11.019532-7.882813 17.800782-7.886719h64c4.417968 0 8-3.582031 8-8v-36.753906l96.375-98.871094 11.359375-11.359375c15.617187-15.59375 40.914062-15.59375 56.53125 0l80.734375 80.800781c4.523437 4.492188 7.066406 10.601563 7.066406 16.976563 0 6.371093-2.542969 12.484375-7.066406 16.976562-9.484375 9.046875-24.40625 9.046875-33.886719 0l-63.800781-63.769531c-6.25-6.246094-16.375-6.246094-22.625 0l-22.398438 22.398438c-1.511718 1.503906-2.359375 3.542968-2.359375 5.671874 0 2.128907.847657 4.171876 2.359375 5.671876l238.710938 236.089843c4.523437 4.492188 7.066406 10.601563 7.066406 16.976563s-2.542969 12.484375-7.066406 16.976562zm0 0"/></svg>