<svg height="480pt" viewBox="-72 0 480 480" width="480pt" xmlns="http://www.w3.org/2000/svg"><path d="m224 184h-24c-4.417969 0-8-3.582031-8-8v-12l-24.273438-18.199219-19.285156 12.855469c-3.675781 2.453125-8.644531 1.460938-11.097656-2.214844-2.453125-3.675781-1.460938-8.644531 2.214844-11.097656l24-16c2.824218-1.882812 6.527344-1.78125 9.242187.257812l32 24c2.011719 1.507813 3.199219 3.878907 3.199219 6.398438v8h16c4.417969 0 8 3.582031 8 8s-3.582031 8-8 8zm0 0"/><path d="m120 224c-3.234375 0-6.152344-1.949219-7.390625-4.9375s-.550781-6.429688 1.734375-8.71875l48-48c1.695312-1.695312 4.058594-2.539062 6.445312-2.304688 2.382813.234376 4.535157 1.527344 5.867188 3.519532l16 24c2.117188 3.175781 1.695312 7.402344-1 10.097656l-16 16c-3.140625 3.03125-8.128906 2.988281-11.214844-.097656-3.085937-3.085938-3.128906-8.074219-.097656-11.214844l11.359375-11.359375-6.941406-10.398437-41.105469 41.101562c-1.503906 1.488281-3.539062 2.320312-5.65625 2.3125zm0 0"/><path d="m208 144c-8.835938 0-16-7.164062-16-16s7.164062-16 16-16 16 7.164062 16 16-7.164062 16-16 16zm0-16"/><path d="m168 264c-53.019531 0-96-42.980469-96-96s42.980469-96 96-96 96 42.980469 96 96c-.058594 52.996094-43.003906 95.941406-96 96zm0-176c-44.183594 0-80 35.816406-80 80s35.816406 80 80 80 80-35.816406 80-80c-.046875-44.164062-35.835938-79.953125-80-80zm0 0"/><path d="m220.945312 387.503906c47.855469-62.230468 115.054688-160.105468 115.054688-219.503906 0-92.785156-75.214844-168-168-168s-168 75.214844-168 168c0 59.398438 67.199219 157.273438 115.054688 219.503906-42.398438 5.921875-83.054688 20.097656-83.054688 44.496094 0 31.511719 68.414062 48 136 48s136-16.488281 136-48c0-24.398438-40.65625-38.574219-83.054688-44.496094zm-52.945312-371.503906c83.910156.09375 151.90625 68.089844 152 152 0 74.832031-123.0625 225.3125-152 259.664062-28.953125-34.398437-152-184.800781-152-259.664062.09375-83.910156 68.089844-151.90625 152-152zm0 448c-73.246094 0-120-18.953125-120-32 0-8.742188 25.039062-23.960938 78.519531-29.800781 19.296875 24.417969 33.542969 40.871093 35.449219 43.058593 1.519531 1.742188 3.71875 2.742188 6.03125 2.742188s4.511719-1 6.03125-2.742188c1.90625-2.1875 16.152344-18.640624 35.449219-43.058593 53.480469 5.839843 78.519531 21.058593 78.519531 29.800781 0 13.046875-46.753906 32-120 32zm0 0"/></svg>