<svg height="480pt" viewBox="-96 0 480 480.00001" width="480pt" xmlns="http://www.w3.org/2000/svg"><path d="m272.785156 47.847656c4.085938-.34375 7.230469-3.75 7.25-7.847656v-32c0-4.417969-3.582031-8-8-8h-256c-4.421875 0-8 3.582031-8 8v32c.015625 4.097656 3.160156 7.503906 7.246094 7.847656l-15.2460938 167.425782c-.2070312 2.242187.5429688 4.46875 2.0664058 6.132812 1.523438 1.660156 3.675782 2.601562 5.933594 2.59375h8.246094l7.753906 248.246094c.132813 4.324218 3.675782 7.757812 8 7.753906h56c4.230469.007812 7.734375-3.28125 8-7.503906l15.511719-248.496094h8.488281c3.605469 0 6.769532-2.414062 7.71875-5.894531l16.28125-59.707031 16.277344 59.707031c.949219 3.480469 4.113281 5.894531 7.722656 5.894531h8.484375l15.515625 248.496094c.261719 4.222656 3.765625 7.511718 8 7.503906h56c4.320313.003906 7.863282-3.429688 8-7.753906l7.75-248.246094h8.25c2.253906.007812 4.40625-.933594 5.929688-2.59375 1.523437-1.664062 2.273437-3.890625 2.070312-6.132812zm-248.75-31.847656h240v16h-240zm56.484375 448h-40.734375l-7.503906-240h63.238281zm71.515625-337.070312v-38.929688c0-4.417969-3.582031-8-8-8-4.421875 0-8 3.582031-8 8v38.929688l-22.113281 81.070312h-97.089844l14.503907-160h225.394531l14.542969 160h-97.128907zm96.246094 337.070312h-40.734375l-15-240h63.238281zm0 0"/><path d="m243.6875 88.28125h.738281c4.398438-.402344 7.640625-4.296875 7.238281-8.695312l-.726562-8c-.402344-4.402344-4.296875-7.644532-8.695312-7.242188-4.402344.402344-7.644532 4.296875-7.242188 8.695312l.730469 7.960938c.371093 4.121094 3.824219 7.277344 7.957031 7.28125zm0 0"/><path d="m245.128906 96.097656c-2.113281.1875-4.066406 1.210938-5.425781 2.84375-1.359375 1.632813-2.015625 3.734375-1.820313 5.851563l7.261719 79.792969c.375 4.113281 3.828125 7.265624 7.960938 7.269531h.734375c4.402344-.402344 7.644531-4.292969 7.242187-8.695313l-7.257812-79.800781c-.167969-2.125-1.183594-4.09375-2.820313-5.460937-1.636718-1.367188-3.753906-2.015626-5.875-1.800782zm0 0"/></svg>