<svg height="480pt" viewBox="0 0 480 480.28011" width="480pt" xmlns="http://www.w3.org/2000/svg"><path d="m336.140625 216h-192c-4.417969 0-8 3.582031-8 8v136c0 4.417969 3.582031 8 8 8h192c4.417969 0 8-3.582031 8-8v-136c0-4.417969-3.582031-8-8-8zm-8 16v24h-176v-24zm-176 120v-80h176v80zm0 0"/><path d="m195.203125 280.609375c-2.988281-1.238281-6.429687-.554687-8.71875 1.734375l-16 16c-3.03125 3.140625-2.988281 8.128906.097656 11.214844 3.085938 3.085937 8.074219 3.128906 11.214844.097656l2.34375-2.34375v28.6875c0 4.417969 3.582031 8 8 8s8-3.582031 8-8v-48c0-3.234375-1.945313-6.152344-4.9375-7.390625zm0 0"/><path d="m248.140625 280h-16c-8.835937 0-16 7.164062-16 16v8c0 4.417969 3.582031 8 8 8s8-3.582031 8-8v-8h16v11.054688l-27.574219 13.785156c-2.714844 1.355468-4.425781 4.128906-4.425781 7.160156v8c0 4.417969 3.582031 8 8 8h32c4.417969 0 8-3.582031 8-8s-3.582031-8-8-8h-14.113281l13.265625-6.632812c5.4375-2.691407 8.871093-8.242188 8.847656-14.3125v-11.054688c0-8.835938-7.164063-16-16-16zm0 0"/><path d="m296.140625 280h-16c-4.417969 0-8 3.582031-8 8s3.582031 8 8 8h16v8h-16c-4.417969 0-8 3.582031-8 8s3.582031 8 8 8h16v8h-16c-4.417969 0-8 3.582031-8 8s3.582031 8 8 8h16c8.835937 0 16-7.164062 16-16v-8c-.015625-2.816406-.785156-5.578125-2.222656-8 1.4375-2.421875 2.207031-5.183594 2.222656-8v-8c0-8.835938-7.164063-16-16-16zm0 0"/><path d="m304.140625 184c17.671875 0 32-14.328125 32-32s-14.328125-32-32-32-32 14.328125-32 32 14.328125 32 32 32zm0-48c8.835937 0 16 7.164062 16 16s-7.164063 16-16 16-16-7.164062-16-16 7.164063-16 16-16zm0 0"/><path d="m479.117188 132.078125-72-128c-1.417969-2.519531-4.085938-4.078125-6.976563-4.078125h-80c-4.417969 0-8 3.582031-8 8 0 .488281-.0625.96875-.070313 1.457031l-17.015624 3.398438c-36.246094 7.304687-73.582032 7.304687-109.824219 0l-17.019531-3.398438c-.007813-.488281-.070313-.96875-.070313-1.457031 0-4.417969-3.582031-8-8-8h-80c-2.890625 0-5.558594 1.558594-6.976563 4.078125l-72 128c-1.0976558 1.953125-1.324218 4.277344-.628906 6.40625.699219 2.128906 2.253906 3.867187 4.292969 4.796875l83.3125 37.871094v274.847656c-.003906 3.75 2.601563 7 6.265625 7.816406l5.167969 1.144532c46.15625 10.210937 93.292969 15.347656 140.566406 15.320312 47.277344.027344 94.414063-5.109375 140.578125-15.320312l5.15625-1.144532c3.664062-.816406 6.269531-4.066406 6.265625-7.816406v-274.847656l83.3125-37.871094c2.039063-.929688 3.59375-2.667969 4.292969-4.796875.695312-2.128906.46875-4.453125-.628906-6.40625zm-297.023438-103.535156c38.3125 7.707031 77.78125 7.707031 116.09375 0l11.554688-2.304688c-8.257813 31.660157-36.851563 53.75-69.570313 53.75s-61.308594-22.089843-69.566406-53.75zm210.046875 135.03125v-19.574219c0-4.417969-3.582031-8-8-8s-8 3.582031-8 8v305.601562c-89.605469 19.597657-182.390625 19.597657-272 0v-305.601562c0-4.417969-3.582031-8-8-8s-8 3.582031-8 8v19.574219l-68.75-31.246094 65.429687-116.328125h67.679688c4.113281 45.332031 42.121094 80.046875 87.640625 80.046875s83.527344-34.714844 87.640625-80.046875h67.679688l65.433593 116.328125zm0 0"/></svg>