<svg height="479pt" viewBox="-63 0 479 479.696" width="479pt" xmlns="http://www.w3.org/2000/svg"><path d="m344.347656 168c-22.074218-.039062-39.960937-17.925781-40-40v-120c0-4.417969-3.582031-8-8-8h-56c-4.417968 0-8 3.582031-8 8v19.199219l-2.335937 1.167969c-33.804688 16.800781-73.523438 16.800781-107.328125 0l-2.335938-1.167969v-19.199219c0-4.417969-3.582031-8-8-8h-56c-4.417968 0-8 3.582031-8 8v120c-.039062 22.074219-17.925781 39.960938-40 40-4.417968 0-8 3.582031-8 8v272c.003906 3.582031 2.386719 6.726562 5.832032 7.695312l.9375.273438c55.03125 15.734375 111.992187 23.71875 169.230468 23.726562 57.226563.007813 114.175782-7.96875 169.199219-23.695312l.96875-.273438c3.460937-.972656 5.84375-4.132812 5.832031-7.726562v-272c0-4.417969-3.582031-8-8-8zm-168-111.078125c19.320313-.054687 38.410156-4.21875 56-12.21875v.472656c.003906 29.992188-12.941406 58.523438-35.511718 78.273438l-20.488282 17.917969-20.488281-17.917969c-22.570313-19.75-35.511719-48.28125-35.511719-78.273438v-.472656c17.589844 8 36.679688 12.167969 56 12.21875zm160 385.015625c-104.695312 28.992188-215.304687 28.992188-320 0v-258.496094c27.53125-4.03125 47.953125-27.617187 48-55.441406v-112h40v29.175781c-.003906 34.605469 14.933594 67.53125 40.976563 90.320313l25.75 22.527344c3.019531 2.644531 7.527343 2.644531 10.546875 0l25.75-22.527344c26.042968-22.789063 40.980468-55.714844 40.976562-90.320313v-29.175781h40v112c.042969 27.824219 20.46875 51.417969 48 55.441406zm0 0"/><path d="m272.347656 240h-192c-4.417968 0-8 3.582031-8 8v136c0 4.417969 3.582032 8 8 8h192c4.417969 0 8-3.582031 8-8v-136c0-4.417969-3.582031-8-8-8zm-8 16v24h-176v-24zm-176 120v-80h176v80zm0 0"/><path d="m131.410156 304.609375c-2.988281-1.253906-6.4375-.566406-8.71875 1.734375l-16 16c-3.03125 3.140625-2.988281 8.128906.097656 11.214844 3.085938 3.085937 8.074219 3.128906 11.214844.097656l2.34375-2.34375v28.6875c0 4.417969 3.582032 8 8 8 4.417969 0 8-3.582031 8-8v-48c0-3.234375-1.945312-6.152344-4.9375-7.390625zm0 0"/><path d="m184.347656 304h-16c-8.835937 0-16 7.164062-16 16v8c0 4.417969 3.582032 8 8 8 4.417969 0 8-3.582031 8-8v-8h16v11.054688l-27.574218 13.785156c-2.714844 1.355468-4.425782 4.128906-4.425782 7.160156v8c0 4.417969 3.582032 8 8 8h32c4.417969 0 8-3.582031 8-8s-3.582031-8-8-8h-14.113281l13.265625-6.632812c5.441406-2.691407 8.871094-8.242188 8.847656-14.3125v-11.054688c0-8.835938-7.164062-16-16-16zm0 0"/><path d="m232.347656 304h-16c-4.417968 0-8 3.582031-8 8s3.582032 8 8 8h16v8h-16c-4.417968 0-8 3.582031-8 8s3.582032 8 8 8h16v8h-16c-4.417968 0-8 3.582031-8 8s3.582032 8 8 8h16c8.835938 0 16-7.164062 16-16v-8c-.015625-2.816406-.785156-5.578125-2.222656-8 1.4375-2.421875 2.207031-5.183594 2.222656-8v-8c0-8.835938-7.164062-16-16-16zm0 0"/><path d="m248.347656 152c-17.671875 0-32 14.328125-32 32s14.328125 32 32 32 32-14.328125 32-32-14.328125-32-32-32zm0 48c-8.835937 0-16-7.164062-16-16s7.164063-16 16-16c8.835938 0 16 7.164062 16 16s-7.164062 16-16 16zm0 0"/></svg>