<svg fill="#114B5F" height="480pt" viewBox="0 -1 480 480" width="480pt" xmlns="http://www.w3.org/2000/svg"><path d="m472 430.195312h-464c-4.417969 0-8 3.582032-8 8v32c0 4.417969 3.582031 8 8 8h464c4.417969 0 8-3.582031 8-8v-32c0-4.417968-3.582031-8-8-8zm-8 32h-448v-16h448zm0 0"/><path d="m178.191406 99.953125c-.175781.40625-.316406.820313-.421875 1.25-2.269531-2.03125-4.734375-3.828125-7.363281-5.367187-3.753906-2.179688-8.5625-.960938-10.832031 2.742187l-59.109375 96.664063-38.144532 62.382812-10.074218-5.992188c-1.835938-1.089843-4.039063-1.402343-6.109375-.859374-2.070313.539062-3.835938 1.886718-4.90625 3.742187l-8.085938 13.992187c-6.527343 11.382813-2.738281 25.898438 8.519531 32.636719l187.488282 111.402344c10.945312 6.316406 23.359375 9.644531 36 9.648437h174.847656c13.253906 0 24-10.746093 24-24v-16c0-4.417968-3.582031-8-8-8h-8.183594c-.535156-9.335937-2.898437-18.476562-6.960937-26.898437-.097657-.222656-.210938-.4375-.335938-.648437-9.804687-19.949219-28.265625-34.257813-50.03125-38.773438l-62.183593-12.800781c-.394532-.945313-.855469-1.863281-1.375-2.746094l-46.457032-80.476563 118.40625-199.816406c2.160156-3.792968.886719-8.617187-2.867187-10.84375-3.753907-2.226562-8.601563-1.03125-10.890625 2.683594l-91.089844 153.703125-97.542969-56.304687 51.558594-89.320313c2.175781-3.820313.855469-8.683594-2.953125-10.882813-3.808594-2.199218-8.675781-.910156-10.902344 2.882813l-54.320312 94.097656c-.65625.539063-1.222656 1.183594-1.679688 1.902344zm-68.121094 110.242187c31.363282 21.316407 45.597657 60.289063 35.355469 96.796876l-69.355469-41.199219zm337.929688 188c0 4.417969-3.582031 8-8 8h-174.847656c-9.800782 0-19.425782-2.570312-27.921875-7.457031l-187.398438-111.351562c-3.757812-2.242188-5.019531-7.082031-2.832031-10.871094l4-6.984375 194.054688 115.304688c6.082031 3.507812 12.980468 5.355468 20 5.359374h182.945312zm-63.015625-24c3.355469-9.542968 12.34375-15.945312 22.457031-16h20.671875c1.957031 5.128907 3.144531 10.519532 3.519531 16zm-64.488281-64.359374 66.785156 13.71875c12.21875 2.53125 23.234375 9.097656 31.277344 18.640624h-11.117188c-18.945312.089844-35.234375 13.441407-39.042968 32h-103.34375c-4.179688-.007812-8.289063-1.109374-11.910157-3.203124l-93.601562-55.621094c14.378906-44.339844-2.417969-92.832032-41.144531-118.777344l50.210937-82.105469c12.167969 12.386719 7.527344 31.664063 5.597656 37.898438-3.128906 10.296875 1.046875 21.414062 10.183594 27.101562l54.449219 34.328125c-2.46875 7.058594-2.3125 14.769532.441406 21.722656l.085938.214844v.089844c.527343 1.476562 1.195312 2.902344 1.992187 4.253906l29.601563 51.289063c3.410156 5.949219 9.21875 10.144531 15.941406 11.503906l33.175781 6.847656zm-56.222656-94.042969 10.023437 17.359375-13.832031 8-5.335938-9.238282c-.375-.660156-.679687-1.359374-.914062-2.078124-1.902344-4.890626-1.28125-10.40625 1.664062-14.746094 1.304688-2 3.066406-3.664063 5.136719-4.855469h.039063zm4.199218 39.199219 13.832032-8 6.398437 11.042968-13.824219 8zm21.597656 32.195312c-2.214843-.460938-4.128906-1.855469-5.246093-3.824219l-2-3.472656 13.824219-8 10.902343 18.894531zm-4.222656-115.875-14.574218 24.601562-.371094-.625c-2.203125-3.820312-7.082032-5.136718-10.910156-2.941406l-7.015626 4c-1.9375 1.140625-3.753906 2.480469-5.417968 4l-54.671875-34.480468c-3.007813-1.8125-4.421875-5.425782-3.4375-8.800782 4.773437-13.535156 4.339843-28.367187-1.21875-41.601562l.226562-.390625zm0 0"/><path d="m40 78.195312h120c4.417969 0 8-3.582031 8-8 0-4.417968-3.582031-8-8-8h-120c-4.417969 0-8 3.582032-8 8 0 4.417969 3.582031 8 8 8zm0 0"/><path d="m8 78.195312h8c4.417969 0 8-3.582031 8-8 0-4.417968-3.582031-8-8-8h-8c-4.417969 0-8 3.582032-8 8 0 4.417969 3.582031 8 8 8zm0 0"/><path d="m120 126.195312c4.417969 0 8-3.582031 8-8 0-4.417968-3.582031-8-8-8h-48c-4.417969 0-8 3.582032-8 8 0 4.417969 3.582031 8 8 8zm0 0"/><path d="m32 126.195312h8c4.417969 0 8-3.582031 8-8 0-4.417968-3.582031-8-8-8h-8c-4.417969 0-8 3.582032-8 8 0 4.417969 3.582031 8 8 8zm0 0"/><path d="m96 30.195312h88c4.417969 0 8-3.582031 8-8 0-4.417968-3.582031-8-8-8h-88c-4.417969 0-8 3.582032-8 8 0 4.417969 3.582031 8 8 8zm0 0"/><path d="m56 30.195312h8c4.417969 0 8-3.582031 8-8 0-4.417968-3.582031-8-8-8h-8c-4.417969 0-8 3.582032-8 8 0 4.417969 3.582031 8 8 8zm0 0"/><path d="m48 374.195312c-4.417969 0-8 3.582032-8 8 0 4.417969 3.582031 8 8 8h64c4.417969 0 8-3.582031 8-8 0-4.417968-3.582031-8-8-8zm0 0"/><path d="m8 390.195312h8c4.417969 0 8-3.582031 8-8 0-4.417968-3.582031-8-8-8h-8c-4.417969 0-8 3.582032-8 8 0 4.417969 3.582031 8 8 8zm0 0"/><path d="m8 206.195312h40c4.417969 0 8-3.582031 8-8 0-4.417968-3.582031-8-8-8h-40c-4.417969 0-8 3.582032-8 8 0 4.417969 3.582031 8 8 8zm0 0"/><path d="m8 318.195312h8c4.417969 0 8-3.582031 8-8 0-4.417968-3.582031-8-8-8h-8c-4.417969 0-8 3.582032-8 8 0 4.417969 3.582031 8 8 8zm0 0"/></svg>
