<svg height="480pt" viewBox="0 -144 480 480" width="480pt" xmlns="http://www.w3.org/2000/svg"><path d="m472 144.59375h-8v-8.636719c.015625-12.539062-2.679688-24.933593-7.902344-36.328125-11.300781-24.808594-33.425781-43-59.945312-49.296875l-210.320313-49.527343c-2.378906-.5625-4.886719-.003907-6.800781 1.515624-1.917969 1.519532-3.03125 3.832032-3.03125 6.273438v6.640625c.007812 2.175781.195312 4.34375.550781 6.488281l-5.039062 1.824219c-41.722657 15.074219-88.167969 8.898437-124.503907-16.550781l-5.800781-4.082032c-4.886719-3.4375-11.285156-3.867187-16.585937-1.109374-5.304688 2.753906-8.628906 8.238281-8.621094 14.214843v98.046875c-9.554688 3.378906-15.9570312 12.394532-16 22.527344v32c0 13.257812 10.746094 24 24 24h416c22.082031-.023438 39.972656-17.917969 40-40 0-4.417969-3.582031-8-8-8zm-187.265625-104.046875-12.582031 12.585937-33.511719-7.867187 12.605469-12.605469zm18.304687 4.320313 33.480469 7.894531-3.136719 3.136719c-5.878906 5.828124-14.339843 8.222656-22.398437 6.34375l-20.472656-4.800782zm-70.09375-16.527344-12.625 12.625-9.824218-2.304688c-9.589844-2.261718-16.820313-10.15625-18.238282-19.90625zm-195.136718-8.234375c40.628906 28.441406 92.554687 35.339843 139.199218 18.488281l5.351563-1.941406c5.542969 8.84375 14.332031 15.160156 24.480469 17.597656l100.472656 23.59375c13.46875 3.148438 27.609375-.855469 37.421875-10.601562l10.136719-10.128907 37.65625 8.800781c32.457031 7.722657 55.390625 36.679688 55.472656 70.042969v8.636719h-234.734375c-24.445313-20.613281-55.378906-31.945312-87.355469-32h-93.910156v-96.574219zm-13.808594 156.488281c-4.417969 0-8-3.582031-8-8v-32c0-4.417969 3.582031-8 8-8h101.910156c34.605469 0 67.527344 14.9375 90.3125 40.976562l6.175782 7.023438zm416 0h-196.367188l-14.03125-16h233.03125c-3.402343 9.582031-12.464843 15.988281-22.632812 16zm0 0"/><path d="m116.855469 74.492188c23.214843-.085938 46.246093-4.109376 68.113281-11.898438 4.15625-1.503906 6.300781-6.09375 4.796875-10.25-1.507813-4.15625-6.097656-6.304688-10.253906-4.796875-36.582031 13.257813-93.265625 18.96875-132.519531-8.550781-3.617188-2.535156-8.609376-1.660156-11.144532 1.960937-2.535156 3.617188-1.660156 8.605469 1.960938 11.140625 23.433594 15.386719 51.027344 23.203125 79.046875 22.394532zm0 0"/><path d="m152 144.59375h-8c-4.417969 0-8 3.582031-8 8s3.582031 8 8 8h8c4.417969 0 8-3.582031 8-8s-3.582031-8-8-8zm0 0"/><path d="m120 144.59375h-48c-4.417969 0-8 3.582031-8 8s3.582031 8 8 8h48c4.417969 0 8-3.582031 8-8s-3.582031-8-8-8zm0 0"/><path d="m48 144.59375h-8c-4.417969 0-8 3.582031-8 8s3.582031 8 8 8h8c4.417969 0 8-3.582031 8-8s-3.582031-8-8-8zm0 0"/><path d="m288 136.59375h96c4.417969 0 8-3.582031 8-8s-3.582031-8-8-8h-96c-4.417969 0-8 3.582031-8 8s3.582031 8 8 8zm0 0"/><path d="m416 136.59375h8c4.417969 0 8-3.582031 8-8s-3.582031-8-8-8h-8c-4.417969 0-8 3.582031-8 8s3.582031 8 8 8zm0 0"/></svg>