<svg height="480pt" viewBox="-92 0 480 480" width="480pt" xmlns="http://www.w3.org/2000/svg"><path d="m280 152h-8v-24c-.027344-22.082031-17.917969-39.972656-40-40h-8v-64c0-13.253906-10.746094-24-24-24h-128c-13.253906 0-24 10.746094-24 24v64h-8c-22.082031.027344-39.9726562 17.917969-40 40v224c.0273438 22.082031 17.917969 39.972656 40 40h8v64c0 13.253906 10.746094 24 24 24h128c13.253906 0 24-10.746094 24-24v-64h8c22.082031-.027344 39.972656-17.917969 40-40v-136h8c8.835938 0 16-7.164062 16-16v-32c0-8.835938-7.164062-16-16-16zm-216-128c0-4.417969 3.582031-8 8-8h128c4.417969 0 8 3.582031 8 8v64h-144zm144 432c0 4.417969-3.582031 8-8 8h-128c-4.417969 0-8-3.582031-8-8v-64h144zm48-104c0 13.253906-10.746094 24-24 24h-192c-13.253906 0-24-10.746094-24-24v-224c0-13.253906 10.746094-24 24-24h192c13.253906 0 24 10.746094 24 24zm16-152v-32h8v32zm0 0"/><path d="m192 240h-24v-8c0-2.519531-1.1875-4.890625-3.199219-6.398438l-32-24c-2.714843-2.039062-6.417969-2.140624-9.242187-.257812l-24 16c-3.675782 2.453125-4.667969 7.421875-2.214844 11.097656 2.453125 3.675782 7.421875 4.667969 11.097656 2.214844l19.285156-12.855469 24.273438 18.199219v12c0 4.417969 3.582031 8 8 8h32c4.417969 0 8-3.582031 8-8s-3.582031-8-8-8zm0 0"/><path d="m134.65625 235.558594c-1.332031-1.992188-3.484375-3.285156-5.867188-3.519532-2.386718-.234374-4.75.609376-6.445312 2.304688l-48 48c-2.078125 2.007812-2.914062 4.984375-2.179688 7.78125.730469 2.796875 2.914063 4.980469 5.710938 5.710938 2.796875.734374 5.773438-.101563 7.78125-2.179688l41.105469-41.105469 6.941406 10.402344-11.359375 11.359375c-3.03125 3.136719-2.988281 8.128906.097656 11.214844 3.085938 3.085937 8.074219 3.128906 11.214844.097656l16-16c2.695312-2.699219 3.117188-6.921875 1-10.097656zm0 0"/><path d="m184 200c0 8.835938-7.164062 16-16 16s-16-7.164062-16-16 7.164062-16 16-16 16 7.164062 16 16zm0 0"/><path d="m136 136c-57.4375 0-104 46.5625-104 104s46.5625 104 104 104 104-46.5625 104-104c-.066406-57.410156-46.589844-103.933594-104-104zm0 192c-48.601562 0-88-39.398438-88-88s39.398438-88 88-88 88 39.398438 88 88c-.058594 48.578125-39.421875 87.941406-88 88zm0 0"/></svg>