<svg height="480pt" viewBox="-92 0 480 480" width="480pt" xmlns="http://www.w3.org/2000/svg"><path d="m280 152h-8v-24c-.027344-22.082031-17.917969-39.972656-40-40h-8v-64c0-13.253906-10.746094-24-24-24h-128c-13.253906 0-24 10.746094-24 24v64h-8c-22.082031.027344-39.9726562 17.917969-40 40v224c.0273438 22.082031 17.917969 39.972656 40 40h8v64c0 13.253906 10.746094 24 24 24h128c13.253906 0 24-10.746094 24-24v-64h8c22.082031-.027344 39.972656-17.917969 40-40v-136h8c8.835938 0 16-7.164062 16-16v-32c0-8.835938-7.164062-16-16-16zm-216-128c0-4.417969 3.582031-8 8-8h128c4.417969 0 8 3.582031 8 8v64h-144zm144 432c0 4.417969-3.582031 8-8 8h-128c-4.417969 0-8-3.582031-8-8v-64h144zm48-104c0 13.253906-10.746094 24-24 24h-192c-13.253906 0-24-10.746094-24-24v-224c0-13.253906 10.746094-24 24-24h192c13.253906 0 24 10.746094 24 24zm16-152v-32h8v32zm0 0"/><path d="m131.265625 294.457031c2.816406 2.070313 6.652344 2.070313 9.46875 0 6.066406-4.457031 59.265625-44.457031 59.265625-78.457031.636719-16.003906-8.449219-30.804688-23.007812-37.480469-10.90625-4.332031-23.363282-1.273437-31.015626 7.625-3.734374 4.210938-7.074218 8.757813-9.976562 13.582031-2.902344-4.828124-6.238281-9.382812-9.976562-13.597656-7.652344-8.902344-20.109376-11.964844-31.015626-7.625-14.5625 6.675782-23.652343 21.488282-23.007812 37.496094 0 34 53.199219 74 59.265625 78.457031zm-30.402344-101.042969c1.371094-.558593 2.832031-.851562 4.3125-.863281 3.550781.128907 6.875 1.765625 9.144531 4.496094 5.652344 6.953125 10.523438 14.507813 14.519532 22.527344 1.503906 2.523437 4.222656 4.070312 7.160156 4.070312s5.65625-1.546875 7.160156-4.070312c3.996094-8.019531 8.867188-15.574219 14.519532-22.527344 3.179687-4.066406 8.664062-5.542969 13.457031-3.632813 8.40625 4.292969 13.457031 13.167969 12.863281 22.585938 0 19.921875-31.199219 48.671875-48 61.929688-16.273438-12.921876-48-42.152344-48-61.929688-.59375-9.417969 4.457031-18.292969 12.863281-22.585938zm0 0"/><path d="m130.320312 314.320312c-.742187.75-1.3125 1.652344-1.679687 2.640626-1.277344 2.996093-.609375 6.464843 1.6875 8.773437s5.765625 2.996094 8.765625 1.738281c3.003906-1.261718 4.945312-4.214844 4.90625-7.472656.019531-3.25-1.929688-6.1875-4.933594-7.433594-3-1.246094-6.457031-.554687-8.746094 1.753906zm0 0"/><path d="m164.480469 313.359375c-.445313-.300781-.929688-.542969-1.441407-.71875-.476562-.242187-.996093-.40625-1.527343-.480469-1.53125-.328125-3.125-.160156-4.550781.480469-.988282.367187-1.890626.9375-2.640626 1.679687-1.464843 1.53125-2.292968 3.5625-2.320312 5.679688-.019531 2.128906.816406 4.175781 2.320312 5.679688.777344.707031 1.671876 1.273437 2.640626 1.679687 1.9375.851563 4.140624.851563 6.078124 0 .96875-.40625 1.863282-.976563 2.640626-1.679687 1.503906-1.507813 2.339843-3.550782 2.320312-5.679688-.03125-2.117188-.859375-4.148438-2.320312-5.679688-.382813-.34375-.78125-.664062-1.199219-.960937zm0 0"/><path d="m106.320312 314.320312c-1.464843 1.53125-2.292968 3.5625-2.320312 5.679688-.015625 1.039062.171875 2.070312.550781 3.039062.472657.953126 1.066407 1.84375 1.769531 2.640626.777344.707031 1.671876 1.273437 2.640626 1.679687 1.9375.851563 4.140624.851563 6.078124 0 2.011719-.726563 3.59375-2.308594 4.320313-4.320313.410156-.960937.628906-1.992187.640625-3.039062.019531-3.25-1.929688-6.1875-4.933594-7.433594-3-1.246094-6.457031-.554687-8.746094 1.753906zm0 0"/><path d="m232 120h-192c-4.417969 0-8 3.582031-8 8v224c0 4.417969 3.582031 8 8 8h192c4.417969 0 8-3.582031 8-8v-224c0-4.417969-3.582031-8-8-8zm-8 224h-176v-208h176zm0 0"/></svg>