<svg height="480pt" viewBox="0 -112 480.00294 480" width="480pt" xmlns="http://www.w3.org/2000/svg"><path d="m464.28125 148.601562c6.164062-7.109374 8.835938-16.597656 7.289062-25.882812-1.546874-9.28125-7.152343-17.390625-15.289062-22.117188 6.929688-8 9.398438-18.9375 6.578125-29.140624-2.820313-10.203126-10.554687-18.320313-20.613281-21.628907 3.273437-4.535156 5.230468-9.890625 5.648437-15.46875.65625-8.871093-2.40625-17.613281-8.457031-24.132812s-14.542969-10.2226565-23.4375-10.230469h-62.398438c-39.101562-.0429688-77.816406 7.703125-113.890624 22.785156l-25.015626 10.464844c-10.742187 4.46875-22.261718 6.765625-33.894531 6.75h-46.273437c-3.378906-9.554688-12.394532-15.957031-22.527344-16h-16c-10.132812.042969-19.148438 6.445312-22.527344 16h-65.472656c-4.417969 0-8 3.582031-8 8 0 4.421875 3.582031 8 8 8h64v16c-13.253906 0-24 10.746094-24 24v64c0 13.257812 10.746094 24 24 24v16h-64c-4.417969 0-8 3.582031-8 8 0 4.421875 3.582031 8 8 8h65.472656c3.378906 9.554688 12.394532 15.960938 22.527344 16h16c10.132812-.039062 19.148438-6.445312 22.527344-16h27.710937c7.632813 0 15.132813 1.988281 21.761719 5.769531 39.691406 22.414063 84.496094 34.207031 130.078125 34.230469h69.921875c22.082031-.023438 39.972656-17.917969 40-40v-8h24c14.410156.046875 27.058594-9.574219 30.867188-23.46875 3.808593-13.898438-2.167969-28.621094-14.585938-35.929688zm-376.28125-100.601562c0-4.417969 3.582031-8 8-8h16c4.417969 0 8 3.582031 8 8v24h-32zm-24 112v-64c0-4.417969 3.582031-8 8-8h64c4.417969 0 8 3.582031 8 8v64c0 4.421875-3.582031 8-8 8h-64c-4.417969 0-8-3.578125-8-8zm48 56h-16c-4.417969 0-8-3.578125-8-8v-24h32v24c0 4.421875-3.582031 8-8 8zm336-24h-88c-4.417969 0-8 3.582031-8 8 0 4.421875 3.582031 8 8 8h48v8c0 13.257812-10.746094 24-24 24h-69.921875c-42.816406-.019531-84.90625-11.089844-122.191406-32.140625-9.03125-5.152344-19.25-7.859375-29.648438-7.859375h-26.238281v-16c13.253906 0 24-10.742188 24-24v-40c4.417969 0 8-3.578125 8-8 0-4.417969-3.582031-8-8-8v-8c0-13.253906-10.746094-24-24-24v-16h44.800781c13.730469.007812 27.328125-2.710938 40-8l25.03125-10.46875c34.136719-14.261719 70.773438-21.582031 107.769531-21.53125h62.398438c4.449219.007812 8.695312 1.863281 11.722656 5.128906 3.023438 3.265625 4.550782 7.644532 4.214844 12.082032-1.117188 8.636718-8.589844 15.03125-17.296875 14.789062h-22.640625c-4.417969 0-8 3.582031-8 8 0 4.421875 3.582031 8 8 8h40c8.835938 0 16 7.164062 16 16 0 8.839844-7.164062 16-16 16h-40c-4.417969 0-8 3.582031-8 8 0 4.421875 3.582031 8 8 8h48c8.835938 0 16 7.164062 16 16 0 8.839844-7.164062 16-16 16h-48c-4.417969 0-8 3.582031-8 8 0 4.421875 3.582031 8 8 8h56c8.835938 0 16 7.164062 16 16 0 8.839844-7.164062 16-16 16zm0 0"/><path d="m90.34375 149.65625c3.125 3.125 8.1875 3.125 11.3125 0l32-32c3.03125-3.136719 2.988281-8.128906-.097656-11.214844-3.085938-3.085937-8.074219-3.128906-11.214844-.097656l-26.34375 26.347656-10.34375-10.347656c-3.140625-3.03125-8.128906-2.988281-11.214844.097656-3.085937 3.085938-3.128906 8.078125-.097656 11.214844zm0 0"/></svg>