<svg height="479pt" viewBox="0 0 479 479.928" width="479pt" xmlns="http://www.w3.org/2000/svg"><path d="m128.390625 96c-4.453125-.007812-8.0625-3.617188-8.070313-8.070312 0-4.378907-3.550781-7.929688-7.929687-7.929688s-7.925781 3.550781-7.925781 7.929688c0 13.214843 10.710937 23.925781 23.925781 23.925781s23.929687-10.710938 23.929687-23.925781c0-13.214844-10.714843-23.929688-23.929687-23.929688-4.457031 0-8.070313-3.613281-8.070313-8.070312 0-4.460938 3.613282-8.074219 8.070313-8.074219 4.460937 0 8.074219 3.613281 8.074219 8.074219 0 4.375 3.546875 7.925781 7.925781 7.925781s7.929687-3.550781 7.929687-7.925781c0-13.214844-10.714843-23.929688-23.929687-23.929688s-23.925781 10.714844-23.925781 23.929688c0 13.214843 10.710937 23.925781 23.925781 23.925781 4.460937 0 8.074219 3.613281 8.074219 8.074219 0 4.457031-3.613282 8.070312-8.074219 8.070312zm0 0"/><path d="m160.390625 47.855469h15.839844l.234375 56.074219c.015625 4.363281 3.5625 7.894531 7.925781 7.894531 4.371094.003906 7.917969-3.527344 7.929687-7.894531l-.230468-56.042969h16.300781c4.378906 0 7.929687-3.546875 7.929687-7.925781 0-4.378907-3.550781-7.929688-7.929687-7.929688h-48c-4.378906 0-7.925781 3.550781-7.925781 7.929688 0 4.378906 3.546875 7.925781 7.925781 7.925781zm0 0"/><path d="m336.390625 47.855469h15.839844l.234375 56.074219c.015625 4.363281 3.5625 7.894531 7.925781 7.894531 4.371094.003906 7.917969-3.527344 7.929687-7.894531l-.230468-56.042969h16.300781c4.378906 0 7.929687-3.546875 7.929687-7.925781 0-4.378907-3.550781-7.929688-7.929687-7.929688h-48c-4.378906 0-7.925781 3.550781-7.925781 7.929688 0 4.378906 3.546875 7.925781 7.925781 7.925781zm0 0"/><path d="m213.609375 111.351562c4.097656 1.539063 8.667969-.539062 10.207031-4.640624l4.070313-10.855469h25.007812l4.074219 10.855469c1.160156 3.097656 4.117188 5.148437 7.421875 5.152343.953125-.003906 1.894531-.179687 2.785156-.511719 4.101563-1.535156 6.179688-6.105468 4.640625-10.207031l-24-64c-1.160156-3.097656-4.117187-5.148437-7.425781-5.148437-3.304687 0-6.261719 2.050781-7.421875 5.148437l-24 64c-1.539062 4.101563.539062 8.671875 4.640625 10.207031zm26.78125-48.839843 6.5625 17.488281h-13.121094zm0 0"/><path d="m288.390625 111.855469c4.378906 0 7.929687-3.550781 7.929687-7.925781v-24.074219h3.199219l13.808594 27.617187c1.957031 3.917969 6.722656 5.507813 10.640625 3.550782 3.917969-1.957032 5.507812-6.71875 3.550781-10.640626l-11.757812-23.511718c9.65625-5.171875 14.550781-16.257813 11.859375-26.878906-2.691406-10.621094-12.273438-18.042969-23.230469-17.992188h-16c-4.378906 0-7.925781 3.550781-7.925781 7.929688v64c0 4.375 3.546875 7.925781 7.925781 7.925781zm24.074219-55.925781c-.007813 4.453124-3.617188 8.0625-8.074219 8.070312h-8.070313v-16.144531h8.070313c4.457031.007812 8.066406 3.617187 8.074219 8.074219zm0 0"/><path d="m472.390625 0h-464c-4.378906 0-7.925781 3.550781-7.925781 7.929688v464c0 4.375 3.546875 7.925781 7.925781 7.925781h32c4.378906 0 7.929687-3.550781 7.929687-7.925781v-328.074219h384.144532v328.074219c0 4.375 3.546875 7.925781 7.925781 7.925781h32c4.378906 0 7.929687-3.550781 7.929687-7.925781v-464c0-4.378907-3.550781-7.929688-7.929687-7.929688zm-456.070313 15.855469h448.144532v112.144531h-448.144532zm16.144532 448.144531h-16.144532v-320.144531h16.144532zm432 0h-16.144532v-320.144531h16.144532zm0 0"/><path d="m408.390625 79.855469h16c4.378906 0 7.929687-3.550781 7.929687-7.925781 0-4.378907-3.550781-7.929688-7.929687-7.929688h-16c-4.378906 0-7.925781 3.550781-7.925781 7.929688 0 4.375 3.546875 7.925781 7.925781 7.925781zm0 0"/><path d="m56.390625 79.855469h16c4.378906 0 7.929687-3.550781 7.929687-7.925781 0-4.378907-3.550781-7.929688-7.929687-7.929688h-16c-4.378906 0-7.925781 3.550781-7.925781 7.929688 0 4.375 3.546875 7.925781 7.925781 7.925781zm0 0"/><path d="m295.769531 164.824219c-1.25-2.96875-4.15625-4.898438-7.378906-4.894531h-96c-3.21875-.003907-6.125 1.925781-7.375 4.894531l-128 304c-1.039063 2.46875-.773437 5.296875.710937 7.53125 1.480469 2.230469 3.984376 3.574219 6.664063 3.574219h352c2.683594 0 5.183594-1.34375 6.667969-3.574219 1.484375-2.234375 1.75-5.0625.710937-7.53125zm-219.328125 299.105469 121.261719-288h85.375l121.265625 288zm0 0"/><path d="m240.390625 231.929688c-4.417969 0-8 3.578124-8 8v16c0 4.417968 3.582031 8 8 8s8-3.582032 8-8v-16c0-4.421876-3.582031-8-8-8zm0 0"/><path d="m240.390625 183.929688c-4.417969 0-8 3.578124-8 8v16c0 4.417968 3.582031 8 8 8s8-3.582032 8-8v-16c0-4.421876-3.582031-8-8-8zm0 0"/><path d="m240.390625 279.929688c-4.417969 0-8 3.578124-8 8v16c0 4.417968 3.582031 8 8 8s8-3.582032 8-8v-16c0-4.421876-3.582031-8-8-8zm0 0"/><path d="m240.390625 359.929688c-4.417969 0-8-3.582032-8-8v-16c0-4.421876 3.582031-8 8-8s8 3.578124 8 8v16c0 4.417968-3.582031 8-8 8zm0 0"/><path d="m240.390625 407.929688c-4.417969 0-8-3.582032-8-8v-16c0-4.421876 3.582031-8 8-8s8 3.578124 8 8v16c0 4.417968-3.582031 8-8 8zm0 0"/><path d="m240.390625 455.929688c-4.417969 0-8-3.582032-8-8v-16c0-4.421876 3.582031-8 8-8s8 3.578124 8 8v16c0 4.417968-3.582031 8-8 8zm0 0"/></svg>