<svg height="478pt" viewBox="-29 0 478 478.8375" width="478pt" xmlns="http://www.w3.org/2000/svg"><path d="m297.195312 406.792969c-2.859374.003906-5.503906-1.523438-6.933593-4l-8-13.855469c-1.453125-2.476562-1.46875-5.542969-.035157-8.03125 1.429688-2.488281 4.082032-4.023438 6.953126-4.015625 2.871093.007813 5.519531 1.550781 6.9375 4.046875l8 13.855469c1.425781 2.472656 1.429687 5.523437 0 7.996093-1.425782 2.476563-4.0625 4-6.921876 4.003907zm0 0"/><path d="m206.148438 418.785156c-.703126 0-1.402344-.09375-2.082032-.273437-4.265625-1.144531-6.800781-5.53125-5.652344-9.796875l4.140626-15.441406c1.144531-4.269532 5.535156-6.800782 9.800781-5.65625 4.269531 1.144531 6.800781 5.53125 5.65625 9.800781l-4.144531 15.453125c-.941407 3.488281-4.105469 5.914062-7.71875 5.914062zm0 0"/><path d="m396.546875 202.871094c-20.21875-35.082032-51.5-62.472656-88.949219-77.878906l4.574219-17.085938 7.71875 2.0625c.675781.183594 1.375.273438 2.074219.273438 3.621094 0 6.789062-2.433594 7.726562-5.929688l2.066406-7.726562c3.429688-12.800782-4.164062-25.957032-16.960937-29.394532l-30.9375-8.277344c-12.796875-3.398437-25.9375 4.183594-29.398437 16.96875l-2.074219 7.726563c-1.136719 4.265625 1.394531 8.648437 5.65625 9.792969l7.730469 2.070312-4.578126 17.089844c-32.003906-4.273438-64.570312-.007812-94.398437 12.359375l-11.242187-19.472656c16.164062-20.433594 18.179687-48.675781 5.082031-71.199219-15.964844-28.46875-50.675781-40.527344-80.851563-28.089844-30.175781 12.4375-46.308594 45.453125-37.578125 76.902344s39.578125 51.421875 71.84375 46.523438l11.144531 19.335937c-25.617187 19.640625-45.589843 45.703125-57.886718 75.550781l-17.089844-4.574218 2.074219-7.722657c1.144531-4.265625-1.386719-8.65625-5.65625-9.800781l-7.726563-2.070312c-12.804687-3.429688-25.960937 4.167968-29.394531 16.96875l-8.28125 30.933593c-3.425781 12.804688 4.167969 25.960938 16.96875 29.394531l7.730469 2.070313c4.265625 1.140625 8.648437-1.390625 9.789062-5.65625l2.074219-7.71875 17.085937 4.574219c-10.480468 79.605468 31.878907 156.808594 104.648438 190.738281 72.769531 33.925781 159.140625 16.738281 213.375-42.46875 54.234375-59.203125 63.804688-146.742187 23.640625-216.269531zm-116.796875-128.503906 30.910156 8.28125c4.265625 1.144531 6.796875 5.527343 5.65625 9.792968l-7.695312-2.066406-30.976563-8.300781-7.703125-2.066407c1.148438-4.25 5.519532-6.769531 9.773438-5.640624zm1.511719 25.25 15.460937 4.144531-4.207031 15.726562c-5.097656-1.597656-10.253906-2.984375-15.472656-4.152343zm-217.664063-9.375c-13.042968-22.9375-5.125-52.101563 17.726563-65.292969 22.847656-13.195313 52.0625-5.46875 65.40625 17.292969 8.613281 14.804687 8.59375 33.101562-.054688 47.886718l-12.679687-22.03125 6.921875-4c3.824219-2.210937 5.136719-7.101562 2.925781-10.929687l-4-6.917969c-3.179688-5.519531-8.421875-9.550781-14.574219-11.199219-6.152343-1.652343-12.710937-.789062-18.226562 2.398438l-27.710938 16c-5.519531 3.179687-9.546875 8.421875-11.199219 14.574219-1.648437 6.152343-.785156 12.710937 2.398438 18.226562l4 6.925781c2.210938 3.828125 7.101562 5.136719 10.929688 2.929688l6.925781-4 12.722656 22.03125c-17.132813.101562-32.996094-9.027344-41.511719-23.894531zm55.421875-32-27.710937 16-6.914063 4c-2.207031-3.828126-.894531-8.71875 2.929688-10.929688l27.710937-16c1.214844-.703125 2.597656-1.078125 4-1.078125.707032 0 1.40625.09375 2.089844.277344 2.050781.542969 3.800781 1.886719 4.855469 3.730469l-6.921875 4zm-12.800781 25.855468 13.859375-8 32.101563 55.597656c-2.398438 1.234376-4.710938 2.480469-7.03125 3.824219-2.320313 1.34375-4.585938 2.753907-6.832032 4.175781zm-88.734375 174.328125c-1.070313-1.835937-1.359375-4.023437-.800781-6.074219l8.28125-30.902343c.546875-2.058594 1.890625-3.8125 3.738281-4.878907 1.84375-1.0625 4.039063-1.34375 6.09375-.785156l-2.066406 7.710938-3.007813 11.25-7.375 27.40625c-2.050781-.546875-3.800781-1.886719-4.863281-3.726563zm24.457031-7.578125 4.144532-15.472656 15.71875 4.210938c-1.601563 5.097656-2.980469 10.253906-4.144532 15.472656zm279.253906 189.519532c-61.136718 35.195312-137.75 28.445312-191.792968-16.898438-54.042969-45.339844-74-119.617188-49.964844-185.941406 24.035156-66.320313 86.941406-110.566406 157.488281-110.757813 14.777344.011719 29.488281 1.957031 43.757813 5.792969 65.65625 17.574219 114.257812 72.976562 123.125 140.363281 8.871094 67.386719-23.738282 133.480469-82.613282 167.441407zm0 0"/><path d="m276.515625 148.121094c-81.046875-21.714844-164.355469 26.382812-186.070313 107.433594-21.71875 81.046874 26.382813 164.355468 107.429688 186.070312 12.941406 3.480469 26.28125 5.253906 39.679688 5.265625 76.132812-.289063 140.308593-56.855469 150.152343-132.347656 9.84375-75.492188-37.679687-146.621094-111.191406-166.421875zm28.679687 264.527344c-49.476562 28.570312-111.539062 23.167968-155.335937-13.519532s-59.996094-96.839844-40.542969-150.5625c19.453125-53.71875 70.410156-89.554687 127.542969-89.695312 11.992187.011718 23.933594 1.59375 35.511719 4.707031 53.148437 14.199219 92.492187 59.035156 99.675781 113.574219 7.179687 54.539062-19.21875 108.027344-66.875 135.503906zm0 0"/><path d="m268.253906 178.960938c-4.269531-1.144532-8.65625 1.386718-9.800781 5.65625l-21 78.398437c-14.566406-.191406-27.410156 9.523437-31.183594 23.59375-3.777343 14.070313 2.476563 28.90625 15.183594 36.03125l-2.402344 8.800781c-1.136719 4.265625 1.394531 8.648438 5.65625 9.792969.679688.183594 1.378907.28125 2.082031.277344 3.617188-.003907 6.785157-2.4375 7.71875-5.933594l2.402344-8.707031h.285156c14.523438.023437 27.230469-9.757813 30.925782-23.800782 3.695312-14.042968-2.554688-28.8125-15.203125-35.941406l21-78.398437c1.121093-4.261719-1.410157-8.628907-5.664063-9.769531zm-15.601562 120.054687c-2.148438 8.015625-10.066406 13.054687-18.234375 11.613281s-13.882813-8.886718-13.160157-17.148437c.722657-8.265625 7.644532-14.605469 15.9375-14.609375 1.398438 0 2.789063.183594 4.136719.546875 8.539063 2.28125 13.609375 11.058593 11.320313 19.597656zm0 0"/><path d="m184.125 186.953125c-1.417969-2.496094-4.066406-4.039063-6.9375-4.046875-2.871094-.003906-5.523438 1.527344-6.953125 4.015625s-1.417969 5.554687.035156 8.03125l8 13.855469c2.222657 3.792968 7.09375 5.082031 10.898438 2.882812 3.808593-2.199218 5.128906-7.058594 2.957031-10.882812zm0 0"/><path d="m345.117188 241.800781c3.792968-2.222656 5.078124-7.09375 2.882812-10.902343-2.199219-3.808594-7.0625-5.128907-10.882812-2.953126l-13.847657 8c-2.496093 1.417969-4.039062 4.066407-4.046875 6.9375-.007812 2.871094 1.527344 5.523438 4.015625 6.953126 2.488281 1.429687 5.554688 1.417968 8.03125-.035157zm0 0"/><path d="m329.925781 319.722656c-1.144531 4.265625 1.386719 8.65625 5.65625 9.796875l15.453125 4.136719c.679688.1875 1.378906.28125 2.082032.28125 4.011718-.003906 7.40625-2.980469 7.925781-6.960938.523437-3.980468-1.984375-7.730468-5.863281-8.769531l-15.464844-4.132812c-4.261719-1.140625-8.644532 1.386719-9.789063 5.648437zm0 0"/><path d="m143.125 339.945312-13.847656 8c-2.496094 1.417969-4.039063 4.066407-4.046875 6.9375-.007813 2.871094 1.527343 5.523438 4.015625 6.953126 2.488281 1.429687 5.554687 1.417968 8.03125-.035157l13.847656-8c3.792969-2.222656 5.082031-7.09375 2.882812-10.902343-2.199218-3.808594-7.0625-5.128907-10.882812-2.953126zm0 0"/><path d="m136.75 275.960938c4.023438.011718 7.433594-2.96875 7.957031-6.960938.523438-3.992188-2-7.75-5.894531-8.773438l-15.457031-4.136718c-2.789063-.832032-5.808594-.082032-7.882813 1.957031-2.078125 2.039063-2.882812 5.042969-2.105468 7.847656.777343 2.804688 3.015624 4.964844 5.84375 5.640625l15.464843 4.144532c.675781.1875 1.371094.28125 2.074219.28125zm0 0"/><path d="m241.675781 288.234375c-.445312-.304687-.929687-.546875-1.441406-.722656-.476563-.242188-.992187-.402344-1.527344-.480469-2.605469-.445312-5.269531.351562-7.199219 2.160156-3.09375 3.15625-3.09375 8.207032 0 11.363282.75.738281 1.652344 1.3125 2.640626 1.679687.964843.410156 2 .628906 3.046874.636719.507813-.011719 1.015626-.066406 1.511719-.15625.535157-.078125 1.050781-.238282 1.527344-.480469.511719-.179687.996094-.421875 1.441406-.722656l1.199219-.957031c3.09375-3.15625 3.09375-8.207032 0-11.363282zm0 0"/><path d="m307.125 46.601562c.675781.179688 1.371094.269532 2.070312.269532 3.617188 0 6.785157-2.433594 7.722657-5.925782l8.277343-30.871093c1.144532-4.269531-1.386718-8.65625-5.65625-9.800781-4.265624-1.144532-8.65625 1.386718-9.800781 5.65625l-8.269531 30.871093c-1.144531 4.269531 1.386719 8.65625 5.65625 9.800781zm0 0"/><path d="m276.394531 41.273438c.9375 3.496093 4.101563 5.929687 7.722657 5.933593.703124-.019531 1.402343-.132812 2.078124-.335937 4.269532-1.140625 6.800782-5.53125 5.65625-9.796875l-8.253906-30.890625c-1.160156-4.246094-5.535156-6.761719-9.789062-5.621094-4.253906 1.136719-6.785156 5.5-5.667969 9.757812zm0 0"/><path d="m326.46875 52.816406c3.125 3.125 8.1875 3.125 11.3125 0l22.613281-22.625c2.082031-2.003906 2.917969-4.980468 2.1875-7.777344-.730469-2.796874-2.910156-4.984374-5.707031-5.71875-2.796875-.734374-5.773438.097657-7.78125 2.175782l-22.625 22.632812c-3.125 3.125-3.125 8.1875 0 11.3125zm0 0"/></svg>