<svg height="486pt" viewBox="-3 0 486 486.15437" width="486pt" xmlns="http://www.w3.org/2000/svg"><path d="m344.078125 302.078125v-32c0-13.253906-10.746094-24-24-24h-13.535156c23.78125-19.757813 37.535156-49.078125 37.535156-80 0-19.832031-11.695313-46.878906-34.769531-80.375l-4.128906-5.984375-6.351563 3.527344c-7.800781 4.339844-15.238281 8.234375-21.085937 11.203125v-.050781c1.828124-31.871094-9.777344-63.054688-32-85.972657l-5.746094-5.746093-5.65625 5.832031c-4.015625 4.136719-98.261719 101.929687-98.261719 157.566406-.003906 30.921875 13.753906 60.242187 37.535156 80h-13.535156c-13.253906 0-24 10.746094-24 24v32c0 13.257813 10.746094 24 24 24v24c.03125 10.3125 6.664063 19.441406 16.453125 22.664063l7.546875 105.90625c.3125 4.417968 4.148437 7.746093 8.566406 7.429687 4.417969-.3125 7.746094-4.148437 7.433594-8.566406l-7.410156-103.433594h94.816406l-7.40625 103.433594c-.15625 2.125.539063 4.222656 1.933594 5.828125 1.394531 1.609375 3.375 2.59375 5.496093 2.738281h.570313c4.203125.011719 7.699219-3.234375 8-7.429687l7.558594-105.90625c9.789062-3.226563 16.410156-12.355469 16.441406-22.664063v-24c13.253906 0 24-10.742187 24-24zm-192-136c0-38.015625 58.695313-108.910156 87.824219-140.183594 15.488281 18.992188 23.289062 43.097657 21.863281 67.5625-.488281 8.453125-.648437 13.992188-.648437 13.992188l-.375 13.09375 11.824218-5.597657c.566406-.28125 12.597656-6.035156 27.605469-14.144531 18.304687 27.566407 27.90625 50.078125 27.90625 65.277344 0 34.410156-20.054687 65.664063-51.335937 80h-9.113282c2.804688-4.734375 4.324219-10.117187 4.410156-15.621094 24.488282-12.113281 40-37.054687 40.039063-64.378906 0-4.894531-1.777344-16.285156-13.664063-37.597656l-3.730468-6.679688-6.839844 3.421875c-4.796875 2.402344-7.925781 3.90625-8.390625 4.128906l-35.464844 16.921876 1.136719-39.296876c0-.054687.167969-5.746093.671875-14.402343.550781-9.199219-.464844-18.429688-3-27.292969l-4.144531-14.519531-9.6875 11.613281c-29.433594 35.21875-60.886719 80.960938-60.886719 103.703125.027344 27.316406 15.523437 52.253906 40 64.378906.09375 5.503907 1.628906 10.890625 4.445313 15.621094h-9.109376c-31.28125-14.335937-51.335937-45.589844-51.335937-80zm32 0c0-13.023437 18.351563-44.550781 45.847656-79.503906.03125 1.683593-.003906 3.363281-.105469 5.042969-.519531 9-.6875 14.894531-.6875 14.894531l-1.855468 65.480469 59.199218-28.238282 1.601563-.800781c4.238281 7.070313 6.960937 14.949219 8 23.125-.035156 18.285156-8.996094 35.402344-24 45.851563v-42.882813l-11.625 5.898437c-15.304687 7.738282-29.648437 17.257813-42.726563 28.351563-3.117187 2.90625-5.605468 6.421875-7.304687 10.328125-16.394531-10.246094-26.351563-28.214844-26.34375-47.546875zm40 64v-1.925781c-.75-4.941406 1.027344-9.925782 4.726563-13.28125 8.386718-7.359375 17.527343-13.8125 27.273437-19.246094v34.453125c0 8.839844-7.164063 16-16 16s-16-7.160156-16-16zm80 120c0 4.421875-3.582031 8-8 8h-112c-4.417969 0-8-3.578125-8-8v-24h128zm24-48c0 4.421875-3.582031 8-8 8h-160c-4.417969 0-8-3.578125-8-8v-32c0-4.417969 3.582031-8 8-8h160c4.417969 0 8 3.582031 8 8zm0 0"/><path d="m474.871094 378.34375c-13.605469-5.972656-29.03125-6.257812-42.851563-.800781-1.597656.640625-3.199219 1.367187-4.796875 2.144531 1.152344-4.589844 2.152344-9.230469 2.886719-13.953125 28.40625-3.105469 49.929687-27.078125 49.96875-55.65625 0-4.417969-3.582031-8-8-8-15.066406 0-29.492187 6.085937-40 16.882813v-3.882813c19.546875-22.152344 18.519531-55.679687-2.34375-76.597656-3.125-3.125-8.1875-3.125-11.3125 0-20.867187 20.917969-21.890625 54.445312-2.34375 76.597656v26.335937c0 1.257813-.105469 2.496094-.136719 3.746094-10.117187-16.777344-28.269531-27.046875-47.863281-27.082031-4.417969 0-8 3.582031-8 8 .035156 28.636719 21.644531 52.648437 50.117187 55.691406-2.386718 7.933594-5.464843 15.648438-9.199218 23.046875-15.417969-21.3125-43.605469-29-67.710938-18.472656-4.054687 1.765625-5.90625 6.484375-4.136718 10.535156 8.941406 20.386719 29.082031 33.566406 51.34375 33.601563 1.402343 0 2.792968-.113281 4.175781-.214844-13.878907 17.386719-31.660157 31.261719-51.902344 40.496094-2.667969 1.140625-4.507813 3.636719-4.808594 6.519531-.300781 2.886719.984375 5.710938 3.355469 7.378906 2.375 1.667969 5.464844 1.921875 8.078125.660156 12.222656-5.589843 23.679687-12.726562 34.085937-21.230468 22.28125 17.527344 54.144532 15.640625 74.199219-4.394532 3.125-3.125 3.125-8.1875 0-11.3125-11.710937-11.710937-28.015625-17.625-44.511719-16.144531 2.804688-3.988281 5.429688-8.097656 7.875-12.328125 27.273438 8.507813 56.574219-4.882812 68-31.070312 1.738282-4.050782-.125-8.742188-4.167968-10.496094zm-11.816406-59.238281c-3.476563 14.867187-15.085938 26.476562-29.953126 29.949219 3.476563-14.867188 15.085938-26.476563 29.953126-29.949219zm-85.953126 16c14.867188 3.472656 26.476563 15.082031 29.953126 29.949219-14.867188-3.472657-26.476563-15.082032-29.953126-29.949219zm-11.242187 76.613281c-6.980469-2.71875-13.050781-7.359375-17.511719-13.382812 15.03125-2.78125 30.332032 3.226562 39.457032 15.488281-7.367188 1.378906-14.972657.652343-21.945313-2.105469zm58.21875-154.816406c8.054687 12.96875 8.054687 29.386718 0 42.355468-8.058594-12.96875-8.058594-29.386718 0-42.355468zm5.175781 197.175781c-12.96875 8.058594-29.386718 8.058594-42.351562 0 12.964844-8.054687 29.382812-8.054687 42.351562 0zm13.039063-50.398437c-6.96875 2.753906-14.578125 3.484374-21.945313 2.105468 9.125-12.261718 24.429688-18.269531 39.457032-15.488281-4.453126 6.039063-10.523438 10.691406-17.511719 13.421875zm0 0"/><path d="m147.390625 470.800781c-20.242187-9.234375-38.027344-23.109375-51.90625-40.496093 1.386719.101562 2.777344.214843 4.175781.214843 22.261719-.035156 42.402344-13.214843 51.34375-33.597656 1.769532-4.054687-.082031-8.773437-4.132812-10.539063-24.109375-10.527343-52.292969-2.835937-67.714844 18.472657-3.734375-7.398438-6.8125-15.109375-9.199219-23.046875 28.488281-3.046875 50.101563-27.078125 50.121094-55.730469 0-4.417969-3.582031-8-8-8-19.59375.035156-37.746094 10.304687-47.863281 27.082031 0-1.25-.136719-2.488281-.136719-3.746094v-26.335937c19.546875-22.152344 18.519531-55.679687-2.34375-76.597656-3.125-3.125-8.1875-3.125-11.3125 0-20.867187 20.917969-21.890625 54.445312-2.34375 76.597656v3.882813c-10.511719-10.796876-24.9375-16.882813-40-16.882813-4.417969 0-8 3.582031-8 8 .035156 28.566406 21.542969 52.535156 49.933594 55.65625.738281 4.722656 1.738281 9.363281 2.890625 13.953125-1.554688-.800781-3.136719-1.503906-4.800782-2.144531-13.816406-5.457031-29.246093-5.171875-42.847656.800781-4.054687 1.765625-5.90625 6.484375-4.136718 10.535156 11.363281 26.246094 40.71875 39.660156 68 31.074219 2.433593 4.226563 5.054687 8.335937 7.871093 12.328125-16.496093-1.484375-32.800781 4.429688-44.511719 16.144531-3.121093 3.121094-3.121093 8.1875 0 11.308594 20.058594 20.035156 51.921876 21.921875 74.199219 4.394531 10.40625 8.507813 21.863281 15.640625 34.089844 21.230469 2.613281 1.261719 5.703125 1.007813 8.074219-.660156 2.375-1.667969 3.660156-4.492188 3.359375-7.375-.304688-2.886719-2.144531-5.382813-4.808594-6.523438zm-37.53125-70.402343c6.96875-2.761719 14.578125-3.492188 21.945313-2.101563-9.125 12.261719-24.425782 18.269531-39.457032 15.488281 4.46875-5.996094 10.539063-10.605468 17.511719-13.304687zm-6.804687-65.335938c-3.476563 14.867188-15.085938 26.476562-29.953126 29.953125 3.488282-14.851563 15.09375-26.441406 29.953126-29.910156zm-85.953126-16c14.867188 3.476562 26.476563 15.085938 29.953126 29.953125-14.859376-3.46875-26.464844-15.058594-29.953126-29.910156zm20.800782 84.617188c-6.984375-2.71875-13.054688-7.359376-17.511719-13.382813 15.027344-2.78125 30.332031 3.226563 39.453125 15.488281-7.375 1.398438-14.996094.683594-21.984375-2.066406zm18.175781-146.777344c8.054687 12.96875 8.054687 29.386718 0 42.355468-8.058594-12.96875-8.058594-29.386718 0-42.355468zm-5.175781 197.175781c12.964844-8.054687 29.382812-8.054687 42.351562 0-12.96875 8.058594-29.386718 8.058594-42.351562 0zm0 0"/><path d="m171.597656 20.71875c.445313.304688.929688.546875 1.441406.722656.453126.230469.9375.390625 1.4375.480469.53125.085937 1.0625.140625 1.601563.15625 1.042969-.011719 2.078125-.226563 3.039063-.636719.96875-.40625 1.863281-.976562 2.640624-1.679687 1.460938-1.535157 2.289063-3.5625 2.320313-5.683594-.03125-2.117187-.859375-4.144531-2.320313-5.679687-.765624-.722657-1.660156-1.292969-2.640624-1.679688-2.984376-1.214844-6.402344-.554688-8.71875 1.679688-1.460938 1.535156-2.289063 3.5625-2.320313 5.679687.03125 2.121094.859375 4.148437 2.320313 5.683594.378906.34375.78125.664062 1.199218.957031zm0 0"/><path d="m160.078125 62.078125c.535156-.015625 1.070313-.070313 1.597656-.15625.503907-.089844.988281-.25 1.441407-.480469.511718-.175781.996093-.417968 1.441406-.722656l1.199218-.957031.960938-1.203125c.300781-.445313.542969-.929688.71875-1.4375.230469-.453125.394531-.941406.480469-1.441406.089843-.527344.140625-1.0625.160156-1.601563-.03125-2.117187-.859375-4.144531-2.320313-5.679687-.378906-.34375-.78125-.664063-1.199218-.957032-.445313-.304687-.929688-.546875-1.441406-.722656-.453126-.230469-.9375-.390625-1.441407-.480469-2.632812-.523437-5.355469.285157-7.277343 2.160157-.722657.765624-1.292969 1.664062-1.679688 2.640624-.410156.960938-.628906 1.996094-.640625 3.039063-.023437 2.128906.8125 4.175781 2.320313 5.683594 1.503906 1.503906 3.550781 2.339843 5.679687 2.316406zm0 0"/><path d="m328.078125 70.078125c13.253906 0 24-10.742187 24-24 0-10.222656-12.175781-28.964844-17.417969-36.542969l-6.582031-9.535156-6.585937 9.535156c-5.238282 7.578125-17.414063 26.320313-17.414063 36.542969 0 13.257813 10.746094 24 24 24zm0-41.167969c3.5625 5.261719 6.261719 11.058594 8 17.167969 0 4.421875-3.582031 8-8 8s-8-3.578125-8-8c1.734375-6.109375 4.433594-11.90625 8-17.167969zm0 0"/></svg>