<svg height="480pt" viewBox="0 0 480.2344 480" width="480pt" xmlns="http://www.w3.org/2000/svg"><path d="m472.117188 400.199219c-4.417969 0-8 3.582031-8 8v56h-51.113282l-59.917968-116.984375 55.03125-119.816406 56.734374 123.457031c1.128907 2.695312 3.640626 4.566406 6.550782 4.871093 2.910156.304688 5.75-1.003906 7.414062-3.410156 1.664063-2.40625 1.878906-5.53125.566406-8.144531l-64-139.277344c-1.308593-2.839843-4.144531-4.65625-7.269531-4.65625s-5.960937 1.816407-7.269531 4.65625l-57.046875 124.183594s-34.785156-67.929687-34.824219-68l-60.855468-118.808594v-46.070312h72c4.417968 0 8-3.582031 8-8v-8h72c3.445312 0 6.5-2.203125 7.589843-5.472657 1.089844-3.265624-.035156-6.863281-2.789062-8.929687l-23.464844-17.597656 23.464844-17.601563c2.753906-2.066406 3.878906-5.664062 2.789062-8.929687-1.089843-3.265625-4.144531-5.46875-7.589843-5.46875h-80c-4.417969 0-8 3.582031-8 8v8h-64v-2.226563c6.273437-3.621094 9.328124-11 7.453124-17.996094-1.871093-6.996093-8.210937-11.859374-15.453124-11.859374-7.242188 0-13.582032 4.863281-15.453126 11.859374-1.875 6.996094 1.183594 14.375 7.453126 17.996094v112.296875l-95.679688 186.808594-57.046875-124.214844c-1.308594-2.839843-4.144531-4.660156-7.269531-4.660156s-5.960938 1.820313-7.269532 4.660156l-64 139.277344c-1.3125 2.613281-1.097656 5.734375.566407 8.144531 1.664062 2.40625 4.507812 3.710938 7.414062 3.40625 2.910157-.304687 5.421875-2.171875 6.550781-4.871094l56.734376-123.421874 55.03125 119.847656-59.917969 116.953125h-51.113281v-56c0-4.417969-3.582032-8-8-8-4.417969 0-8 3.582031-8 8v64c0 4.417969 3.582031 8 8 8h464c4.417968 0 8-3.582031 8-8v-64c0-4.417969-3.582032-8-8-8zm-232-238.457031 52.710937 102.917968-12.488281 17.457032-25.597656-38.398438c-1.570313-2.414062-4.332032-3.773438-7.199219-3.546875-2.847657.179687-5.382813 1.859375-6.65625 4.410156l-32.496094 65-20.738281-45.601562zm88-129.542969h48l-12.800782 9.597656c-2.011718 1.511719-3.199218 3.882813-3.199218 6.402344 0 2.515625 1.1875 4.886719 3.199218 6.398437l12.800782 9.601563h-48zm-16 16v32h-64v-32zm-160 400c0-17.675781 14.328124-32 32-32 17.671874 0 32 14.324219 32 32 .003906 5.625-1.503907 11.152343-4.359376 16h-55.28125c-2.855468-4.847657-4.363281-10.375-4.359374-16zm80 16c0-8.839844 7.164062-16 16-16 8.835937 0 16 7.160156 16 16zm48 0c.035156-11.714844-6.351563-22.507813-16.636719-28.113281-10.285157-5.605469-22.816407-5.125-32.644531 1.253906-3.878907-17.472656-17.164063-31.335938-34.457032-35.960938-17.292968-4.625-35.722656.757813-47.808594 13.964844-12.085937 13.203125-15.820312 32.035156-9.683593 48.855469h-53.679688l93.214844-181.992188 22.398437 49.300781c1.277344 2.808594 4.046876 4.628907 7.128907 4.691407h.167969c3.03125 0 5.804687-1.714844 7.160156-4.425781l33.832031-67.671876 24.351563 36.535157c1.457031 2.1875 3.898437 3.515625 6.523437 3.558593 2.628906.042969 5.109375-1.207031 6.636719-3.339843l14.398437-20.167969 94.007813 183.511719zm0 0"/><path d="m472.117188 368.199219c-4.417969 0-8 3.582031-8 8v8c0 4.417969 3.582031 8 8 8 4.417968 0 8-3.582031 8-8v-8c0-4.417969-3.582032-8-8-8zm0 0"/><path d="m8.117188 392.199219c4.417968 0 8-3.582031 8-8v-8c0-4.417969-3.582032-8-8-8-4.417969 0-8 3.582031-8 8v8c0 4.417969 3.582031 8 8 8zm0 0"/></svg>