<svg height="480pt" fill="#114B5F" viewBox="0 0 479 480" width="480pt" xmlns="http://www.w3.org/2000/svg"><path d="m276.390625 152.304688c6.296875 3.589843 10.632813 9.835937 11.796875 16.992187.402344 2.875 2.332031 5.308594 5.039062 6.355469 2.710938 1.046875 5.773438.542968 8.003907-1.316406 2.230469-1.855469 3.28125-4.777344 2.742187-7.632813-1.921875-11.921875-9.148437-22.332031-19.648437-28.304687-3.835938-2.191407-8.722657-.855469-10.914063 2.980468-2.191406 3.839844-.859375 8.726563 2.980469 10.917969zm0 0"/><path d="m296.492188 416c-4.417969 0-8 3.582031-8 8s-3.582032 8-8 8c-4.417969 0-8 3.582031-8 8s3.582031 8 8 8c13.253906 0 24-10.746094 24-24 0-4.417969-3.582032-8-8-8zm0 0"/><path d="m302.171875 394.320312c-3.207031-2.960937-8.152344-2.960937-11.359375 0-.707031.777344-1.273438 1.671876-1.679688 2.640626-.851562 1.9375-.851562 4.140624 0 6.078124.40625.96875.972657 1.863282 1.679688 2.640626 3.15625 3.09375 8.207031 3.09375 11.359375 0 .707031-.777344 1.273437-1.671876 1.679687-2.640626.855469-1.9375.855469-4.140624 0-6.078124-.40625-.96875-.972656-1.863282-1.679687-2.640626zm0 0"/><path d="m264.492188 144c.539062-.015625 1.070312-.066406 1.601562-.160156.5-.089844.984375-.25 1.4375-.480469.511719-.175781.996094-.417969 1.441406-.71875l1.199219-.960937c.320313-.398438.640625-.800782.960937-1.28125.3125-.410157.558594-.867188.71875-1.359376.234376-.449218.394532-.9375.472657-1.4375.101562-.53125.15625-1.066406.167969-1.601562-.03125-2.117188-.859376-4.144531-2.320313-5.679688l-1.199219-.960937c-.445312-.300781-.929687-.542969-1.441406-.71875-.453125-.230469-.9375-.390625-1.4375-.480469-3.765625-.859375-7.589844 1.1875-8.960938 4.800782-.410156.960937-.628906 1.992187-.640624 3.039062-.019532 2.128906.816406 4.175781 2.320312 5.679688 1.503906 1.507812 3.550781 2.34375 5.679688 2.320312zm0 0"/><path d="m442.324219 240 36.671875-51.351562c1.742187-2.4375 1.972656-5.644532.605468-8.308594-1.371093-2.660156-4.113281-4.335938-7.109374-4.339844h-104c-4.039063-.074219-7.464844 2.960938-7.871094 6.984375-.085938.332031-.128906.671875-.128906 1.015625v40h-25.472657c3.078125-8.261719 1.21875-17.554688-4.796875-24 4.003906-4.367188 6.242188-10.074219 6.269532-16v-10.855469c-.027344-25.832031-13.867188-49.671875-36.28125-62.511719l-7.621094-4.359374c-7.46875-4.285157-12.082032-12.230469-12.097656-20.839844v-21.433594h8c4.417968 0 8-3.582031 8-8v-32c0-13.253906-10.746094-24-24-24h-64c-13.253907 0-24 10.746094-24 24v32c0 4.417969 3.582031 8 8 8h8v21.433594c-.015626 8.609375-4.625 16.554687-12.09375 20.839844l-7.625 4.359374c-22.414063 12.839844-36.25 36.679688-36.28125 62.511719v10.855469c.019531 5.921875 2.246093 11.625 6.242187 16-6.019531 6.445312-7.878906 15.738281-4.800781 24h-25.441406v-40c0-.34375-.042969-.683594-.128907-1.015625-.40625-4.023437-3.828125-7.058594-7.871093-6.984375h-104c-2.996094.003906-5.738282 1.679688-7.105469 4.339844-1.371094 2.664062-1.136719 5.871094.601562 8.308594l36.671875 51.351562-36.671875 51.351562c-1.738281 2.4375-1.972656 5.644532-.601562 8.308594 1.367187 2.660156 4.109375 4.335938 7.105469 4.339844h64v40c0 4.417969 3.582031 8 8 8h65.472656c-3.078125 8.261719-1.21875 17.554688 4.800781 24-4.007813 4.367188-6.242187 10.074219-6.273437 16v32c.035156 30.914062 25.085937 55.964844 56 56h80c30.914062-.035156 55.964843-25.085938 56-56v-32c-.019532-5.921875-2.246094-11.625-6.238282-16 6.019532-6.445312 7.875-15.738281 4.800782-24h65.4375c4.417968 0 8-3.582031 8-8v-40h64c2.996093-.003906 5.738281-1.679688 7.109374-4.339844 1.367188-2.664062 1.136719-5.871094-.605468-8.308594zm-65.832031-29.601562 9.054687 13.601562h-9.054687zm-176-186.398438c0-4.417969 3.582031-8 8-8h64c4.417968 0 8 3.582031 8 8v24h-80zm-40 149.144531c.027343-20.089843 10.789062-38.632812 28.214843-48.625l7.625-4.359375c12.449219-7.136718 20.136719-20.378906 20.160157-34.726562v-21.433594h48v21.433594c.023437 14.347656 7.710937 27.589844 20.160156 34.726562l7.625 4.359375c17.429687 9.992188 28.191406 28.535157 28.214844 48.625v10.855469c0 4.417969-3.582032 8-8 8h-144c-4.417969 0-8-3.582031-8-8zm0 42.855469c0-4.417969 3.582031-8 8-8h144c4.417968 0 8 3.582031 8 8s-3.582032 8-8 8h-144c-4.417969 0-8-3.582031-8-8zm-65.054688 8 9.054688-13.601562v13.601562zm-71.402344 64 30.960938-43.351562c1.984375-2.78125 1.984375-6.515626 0-9.296876l-30.960938-43.351562h73.511719l-23.710937 35.558594c-.15625.285156-.292969.578125-.414063.882812-.59375 1.09375-.910156 2.316406-.929687 3.558594v56zm296.457032 136c-.027344 22.082031-17.917969 39.972656-40 40h-80c-22.078126-.027344-39.972657-17.917969-40-40v-32c0-4.417969 3.582031-8 8-8h144c4.417968 0 8 3.582031 8 8zm0-64c0 4.417969-3.582032 8-8 8h-144c-4.417969 0-8-3.582031-8-8s3.582031-8 8-8h144c4.417968 0 8 3.582031 8 8zm72-24h-304v-96h304zm16-48v-56c-.015626-.953125-.207032-1.890625-.558594-2.777344-.269532-.550781-.539063-1.105468-.800782-1.664062l-23.695312-35.558594h73.511719l-30.960938 43.351562c-2 2.777344-2 6.519532 0 9.296876l30.960938 43.351562zm0 0"/><path d="m208.492188 248c-4.417969 0-8 3.582031-8 8v16h-24v-16c0-4.417969-3.582032-8-8-8-4.417969 0-8 3.582031-8 8v48c0 4.417969 3.582031 8 8 8 4.417968 0 8-3.582031 8-8v-16h24v16c0 4.417969 3.582031 8 8 8 4.417968 0 8-3.582031 8-8v-48c0-4.417969-3.582032-8-8-8zm0 0"/><path d="m248.492188 264h-8c-8.835938 0-16 7.164062-16 16 0 4.417969 3.582031 8 8 8 4.417968 0 8-3.582031 8-8h8v10.230469l-13.0625 4.355469c-6.535157 2.179687-10.941407 8.292968-10.9375 15.183593v10.230469c0 4.417969 3.582031 8 8 8h24c4.417968 0 8-3.582031 8-8s-3.582032-8-8-8h-16v-2.230469l13.066406-4.355469c6.53125-2.179687 10.9375-8.292968 10.933594-15.183593v-10.230469c0-8.835938-7.164063-16-16-16zm0 0"/><path d="m296.492188 248c-13.253907 0-24 10.746094-24 24v16c0 13.253906 10.746093 24 24 24 13.253906 0 24-10.746094 24-24v-16c0-13.253906-10.746094-24-24-24zm8 40c0 4.417969-3.582032 8-8 8-4.417969 0-8-3.582031-8-8v-16c0-4.417969 3.582031-8 8-8 4.417968 0 8 3.582031 8 8zm0 0"/></svg>
