<svg height="480pt" viewBox="-144 0 480 480" width="480pt" xmlns="http://www.w3.org/2000/svg"><path d="m192 173.144531c-.027344-25.832031-13.867188-49.671875-36.28125-62.511719l-7.621094-4.359374c-7.46875-4.285157-12.082031-12.230469-12.097656-20.839844v-21.433594h8c4.417969 0 8-3.582031 8-8v-32c0-13.253906-10.746094-24-24-24h-64c-13.253906 0-24 10.746094-24 24v32c0 4.417969 3.582031 8 8 8h8v21.433594c-.015625 8.609375-4.625 16.554687-12.097656 20.839844l-7.621094 4.359374c-22.414062 12.839844-36.25 36.679688-36.28125 62.511719v10.855469c.0195312 5.921875 2.246094 11.625 6.242188 16-8.324219 9.042969-8.324219 22.957031 0 32-8.324219 9.042969-8.324219 22.957031 0 32-8.324219 9.042969-8.324219 22.957031 0 32-8.324219 9.042969-8.324219 22.957031 0 32-8.324219 9.042969-8.324219 22.957031 0 32-3.996094 4.375-6.2226568 10.078125-6.242188 16v48c.0351562 30.914062 25.085938 55.964844 56 56h80c30.914062-.035156 55.964844-25.085938 56-56v-48c-.019531-5.921875-2.246094-11.625-6.238281-16 8.320312-9.042969 8.320312-22.957031 0-32 8.320312-9.042969 8.320312-22.957031 0-32 8.320312-9.042969 8.320312-22.957031 0-32 8.320312-9.042969 8.320312-22.957031 0-32 8.320312-9.042969 8.320312-22.957031 0-32 3.992187-4.375 6.21875-10.078125 6.238281-16zm-136-149.144531c0-4.417969 3.582031-8 8-8h64c4.417969 0 8 3.582031 8 8v24h-80zm-40 149.144531c.027344-20.089843 10.785156-38.632812 28.214844-48.625l7.625-4.359375c12.449218-7.136718 20.136718-20.378906 20.160156-34.726562v-21.433594h48v21.433594c.023438 14.347656 7.710938 27.589844 20.160156 34.726562l7.625 4.359375c17.429688 9.992188 28.191406 28.535157 28.214844 48.625v10.855469c0 4.417969-3.582031 8-8 8h-144c-4.417969 0-8-3.582031-8-8zm160 42.855469c0 4.417969-3.582031 8-8 8h-144c-4.417969 0-8-3.582031-8-8s3.582031-8 8-8h144c4.417969 0 8 3.582031 8 8zm0 32c0 4.417969-3.582031 8-8 8h-144c-4.417969 0-8-3.582031-8-8s3.582031-8 8-8h144c4.417969 0 8 3.582031 8 8zm0 32c0 4.417969-3.582031 8-8 8h-144c-4.417969 0-8-3.582031-8-8s3.582031-8 8-8h144c4.417969 0 8 3.582031 8 8zm0 32c0 4.417969-3.582031 8-8 8h-144c-4.417969 0-8-3.582031-8-8s3.582031-8 8-8h144c4.417969 0 8 3.582031 8 8zm0 32c0 4.417969-3.582031 8-8 8h-144c-4.417969 0-8-3.582031-8-8s3.582031-8 8-8h144c4.417969 0 8 3.582031 8 8zm0 80c-.027344 22.082031-17.917969 39.972656-40 40h-80c-22.082031-.027344-39.972656-17.917969-40-40v-48c0-4.417969 3.582031-8 8-8h144c4.417969 0 8 3.582031 8 8zm0 0"/><path d="m131.894531 152.304688c6.300781 3.589843 10.636719 9.835937 11.800781 16.992187.402344 2.875 2.332032 5.308594 5.039063 6.355469 2.710937 1.046875 5.773437.542968 8.003906-1.316406 2.230469-1.855469 3.28125-4.777344 2.742188-7.632813-1.921875-11.921875-9.148438-22.332031-19.648438-28.304687-3.835937-2.191407-8.722656-.855469-10.914062 2.980468-2.191407 3.839844-.859375 8.726563 2.976562 10.917969zm0 0"/><path d="m152 400c-4.417969 0-8 3.582031-8 8v16c0 4.417969-3.582031 8-8 8s-8 3.582031-8 8 3.582031 8 8 8c13.253906 0 24-10.746094 24-24v-16c0-4.417969-3.582031-8-8-8zm0 0"/><path d="m159.359375 380.960938c-.175781-.507813-.417969-.992188-.71875-1.441407l-.960937-1.199219c-2.300782-2.269531-5.738282-2.933593-8.71875-1.679687-.980469.386719-1.875.957031-2.640626 1.679687-.34375.378907-.664062.78125-.960937 1.199219-.300781.445313-.542969.929688-.71875 1.441407-.242187.476562-.40625.988281-.480469 1.519531-.09375.5-.144531 1.007812-.160156 1.519531 0 4.417969 3.582031 8 8 8s8-3.582031 8-8c-.011719-.511719-.066406-1.019531-.167969-1.519531-.066406-.53125-.226562-1.046875-.472656-1.519531zm0 0"/><path d="m114.320312 141.679688 1.191407.960937c.449219.300781.9375.542969 1.449219.71875.476562.246094.988281.40625 1.519531.480469.5.09375 1.007812.148437 1.519531.160156 2.117188-.03125 4.144531-.859375 5.679688-2.320312.707031-.777344 1.273437-1.671876 1.679687-2.640626.410156-.960937.628906-1.992187.640625-3.039062-.011719-.535156-.066406-1.070312-.167969-1.601562-.078125-.5-.238281-.988282-.472656-1.4375-.175781-.507813-.417969-.992188-.71875-1.441407l-.960937-1.199219c-3.207032-2.960937-8.152344-2.960937-11.359376 0-.34375.378907-.664062.78125-.960937 1.199219-.300781.445313-.542969.929688-.71875 1.441407-.230469.453124-.394531.9375-.480469 1.4375-.09375.53125-.144531 1.066406-.160156 1.601562.011719 1.046875.230469 2.078125.640625 3.039062.386719.980469.957031 1.875 1.679687 2.640626zm0 0"/></svg>